<svg width="25" height="25" viewBox="0 0 25 25" fill="none" xmlns="http://www.w3.org/2000/svg">
<path d="M22.7008 0.0800783C22.5257 0.0799884 22.3523 0.110966 22.1905 0.17124C22.0287 0.231513 21.8816 0.319901 21.7578 0.43135C21.634 0.542798 21.5358 0.67512 21.4688 0.820752C21.4018 0.966383 21.3674 1.12247 21.3675 1.28008V2.04414C20.243 3.29899 18.8217 4.31237 17.2072 5.01054C15.5926 5.70871 13.8254 6.07408 12.0342 6.08008H4.03418C2.97367 6.08112 1.95693 6.46074 1.20703 7.13564C0.457136 7.81055 0.0353373 8.72562 0.0341797 9.68008V12.0801C0.0353373 13.0345 0.457136 13.9496 1.20703 14.6245C1.95693 15.2994 2.97367 15.679 4.03418 15.6801H4.67923L1.47559 22.4078C1.38853 22.5902 1.35319 22.7893 1.37273 22.9871C1.39227 23.1849 1.46609 23.3753 1.58755 23.541C1.70902 23.7068 1.87433 23.8429 2.06865 23.937C2.26296 24.031 2.4802 24.0802 2.70085 24.0801H8.03418C8.29518 24.0802 8.55048 24.0113 8.76832 23.8819C8.98616 23.7525 9.15695 23.5684 9.25945 23.3523L12.8911 15.7257C14.532 15.8341 16.1307 16.2441 17.5886 16.9304C19.0465 17.6167 20.3326 18.5646 21.3675 19.7158V20.4801C21.3675 20.7983 21.508 21.1036 21.758 21.3286C22.0081 21.5536 22.3472 21.6801 22.7008 21.6801C23.0545 21.6801 23.3936 21.5536 23.6437 21.3286C23.8937 21.1036 24.0342 20.7983 24.0342 20.4801V1.28008C24.0343 1.12247 23.9999 0.966382 23.9329 0.82075C23.8659 0.675118 23.7677 0.542795 23.6439 0.431346C23.52 0.319898 23.373 0.23151 23.2112 0.171237C23.0494 0.110963 22.876 0.0799868 22.7008 0.0800783ZM4.03418 13.2801C3.68063 13.2799 3.34163 13.1534 3.09163 12.9284C2.84163 12.7034 2.70108 12.3983 2.70085 12.0801V9.68008C2.70109 9.36188 2.84164 9.05679 3.09164 8.83179C3.34163 8.60679 3.68063 8.48029 4.03418 8.48008H5.36751V13.2801H4.03418ZM7.15527 21.6801H4.72298L7.57975 15.6801H10.012L7.15527 21.6801ZM21.3675 16.3062C18.7385 14.357 15.4404 13.2876 12.0342 13.28H8.03418V8.48002H12.0342C15.4405 8.47218 18.7386 7.40261 21.3675 5.45321V16.3062Z" fill="#2A6000"/>
</svg>
