<svg width="27" height="27" viewBox="0 0 27 27" fill="none" xmlns="http://www.w3.org/2000/svg">
<path d="M13.5 0C6.07499 0 0 6.08584 0 13.5813C0 20.3584 4.94099 25.9834 11.394 27V17.512H7.96499V13.5813H11.394V10.5858C11.394 7.18374 13.4055 5.31325 16.497 5.31325C17.9685 5.31325 19.5075 5.57078 19.5075 5.57078V8.91868H17.8065C16.1325 8.91868 15.606 9.96235 15.606 11.0331V13.5813H19.359L18.7515 17.512H15.606V27C18.7872 26.4956 21.684 24.8659 23.7734 22.4052C25.8628 19.9445 27.0072 16.8149 27 13.5813C27 6.08584 20.925 0 13.5 0Z" fill="#BCC1C6"/>
</svg>
