<svg width="30" height="30" viewBox="0 0 30 30" fill="none" xmlns="http://www.w3.org/2000/svg">
<path d="M28.6852 10.5335C29.6868 13.6104 29.6226 16.9351 28.5032 19.9711C27.3837 23.0071 25.2742 25.5776 22.5149 27.2678C19.7556 28.958 16.5074 29.6695 13.2942 29.2875C10.081 28.9055 7.09012 27.4522 4.80404 25.1621C2.51797 22.872 1.06996 19.8786 0.693578 16.6647C0.317198 13.4509 1.03439 10.2039 2.72948 7.44755C4.42456 4.69122 6.9987 2.58623 10.0367 1.47212C13.0747 0.358014 16.3994 0.299737 19.4746 1.30669L17.5882 3.19129C17.4838 3.29389 17.3902 3.40729 17.3038 3.52429C14.8416 3.02732 12.2847 3.33596 10.0115 4.40458C7.73825 5.4732 5.86927 7.24506 4.68097 9.4581C3.49267 11.6711 3.04814 14.2079 3.41314 16.6931C3.77813 19.1783 4.93326 21.4801 6.70769 23.258C8.48213 25.036 10.7816 26.1956 13.2662 26.5655C15.7507 26.9354 18.2883 26.4958 20.5036 25.3119C22.719 24.1279 24.4945 22.2624 25.5676 19.9913C26.6407 17.7201 26.9543 15.1639 26.4622 12.7007C26.5854 12.6133 26.701 12.5158 26.8078 12.4091L28.6834 10.5335H28.6852ZM23.8162 13.1993C24.2026 15.095 23.9679 17.0647 23.1469 18.8165C22.3258 20.5683 20.9621 22.0089 19.258 22.9247C17.5538 23.8406 15.5999 24.1829 13.6859 23.9009C11.7718 23.6189 9.99964 22.7277 8.63198 21.3593C7.26431 19.991 6.37399 18.2183 6.093 16.3042C5.81201 14.39 6.15532 12.4363 7.07202 10.7325C7.98872 9.02885 9.43001 7.66589 11.1822 6.84573C12.9345 6.02558 14.9043 5.79188 16.7998 6.17929V8.96209C15.4564 8.56105 14.0176 8.61958 12.7112 9.12842C11.4048 9.63726 10.3054 10.5673 9.58719 11.7714C8.86895 12.9754 8.57286 14.3847 8.7458 15.776C8.91873 17.1672 9.55081 18.4611 10.542 19.4527C11.5331 20.4442 12.8267 21.0769 14.2179 21.2504C15.6091 21.4239 17.0185 21.1284 18.2229 20.4107C19.4272 19.693 20.3577 18.594 20.8671 17.2878C21.3765 15.9817 21.4357 14.5429 21.0352 13.1993H23.8162ZM14.9962 17.6993C15.4103 17.6995 15.8188 17.6045 16.1903 17.4216C16.5618 17.2387 16.8862 16.9728 17.1385 16.6444C17.3908 16.3161 17.5642 15.9341 17.6453 15.5281C17.7264 15.122 17.713 14.7027 17.6062 14.3027L20.4538 11.4533L20.5078 11.3993H24.8998C25.0181 11.3995 25.1352 11.3764 25.2446 11.3313C25.3539 11.2862 25.4533 11.22 25.537 11.1365L29.137 7.53649C29.2632 7.41062 29.3492 7.25011 29.384 7.07532C29.4189 6.90052 29.4011 6.71931 29.3328 6.55466C29.2646 6.39001 29.149 6.24933 29.0007 6.15046C28.8524 6.05159 28.678 5.99898 28.4998 5.99929H23.9998V1.49929C23.9998 1.32143 23.947 1.14756 23.8482 0.999645C23.7495 0.851731 23.6091 0.736404 23.4448 0.668226C23.2805 0.600048 23.0997 0.582077 22.9252 0.616582C22.7507 0.651087 22.5904 0.73652 22.4644 0.862094L18.8644 4.46209C18.7806 4.54568 18.714 4.64499 18.6686 4.75433C18.6232 4.86367 18.5998 4.9809 18.5998 5.09929V9.49129C18.5813 9.50879 18.5633 9.5268 18.5458 9.54529L15.6982 12.3893C15.2978 12.2819 14.8781 12.268 14.4715 12.3488C14.0649 12.4296 13.6823 12.6028 13.3534 12.8552C13.0245 13.1075 12.7581 13.4321 12.5748 13.8039C12.3914 14.1757 12.2961 14.5847 12.2962 14.9993C12.2962 15.7154 12.5807 16.4021 13.087 16.9085C13.5934 17.4148 14.2801 17.6993 14.9962 17.6993Z" fill="white"/>
</svg>
