<svg width="610" height="2035" viewBox="0 0 610 2035" fill="none" xmlns="http://www.w3.org/2000/svg">
<path fill-rule="evenodd" clip-rule="evenodd" d="M532.745 370.266C532.617 370.439 532.634 370.706 532.784 370.862L534.383 372.517L531.96 372.637C531.704 372.65 531.515 372.905 531.538 373.206C531.56 373.508 531.785 373.742 532.041 373.729L534.664 373.6L534.87 376.323C534.893 376.625 535.118 376.858 535.374 376.845C535.63 376.832 535.818 376.576 535.795 376.275L535.607 373.784L537.247 375.482C537.397 375.637 537.623 375.622 537.751 375.449C537.88 375.275 537.862 375.008 537.712 374.853L536.417 373.513L537.905 373.439C538.16 373.426 538.35 373.172 538.327 372.87C538.305 372.568 538.08 372.334 537.824 372.347L535.507 372.462L535.272 369.358C535.249 369.057 535.023 368.823 534.768 368.836C534.512 368.85 534.323 369.105 534.346 369.406L534.507 371.535L533.249 370.233C533.099 370.077 532.874 370.092 532.745 370.266Z" fill="#8DE3CE"/>
<path fill-rule="evenodd" clip-rule="evenodd" d="M552.89 507.715C552.761 507.888 552.779 508.155 552.929 508.31L554.529 509.967L552.105 510.087C551.849 510.1 551.66 510.355 551.682 510.656C551.704 510.958 551.93 511.192 552.185 511.18L554.809 511.05L555.015 513.772C555.038 514.073 555.263 514.307 555.519 514.294C555.775 514.281 555.963 514.025 555.941 513.724L555.752 511.233L557.392 512.931C557.542 513.086 557.767 513.071 557.896 512.897C558.024 512.724 558.007 512.457 557.857 512.302L556.563 510.963L558.049 510.889C558.305 510.876 558.494 510.622 558.472 510.32C558.449 510.018 558.224 509.784 557.968 509.797L555.652 509.912L555.417 506.807C555.394 506.506 555.168 506.272 554.913 506.285C554.657 506.298 554.469 506.554 554.491 506.855L554.653 508.984L553.394 507.681C553.244 507.526 553.018 507.541 552.89 507.715Z" fill="#8DE3CE"/>
<path fill-rule="evenodd" clip-rule="evenodd" d="M594.527 357.098C594.399 357.271 594.416 357.538 594.566 357.693L596.167 359.35L593.742 359.471C593.486 359.483 593.297 359.738 593.319 360.04C593.342 360.341 593.567 360.575 593.823 360.563L596.446 360.433L596.652 363.155C596.675 363.457 596.901 363.69 597.156 363.677C597.412 363.664 597.601 363.409 597.578 363.107L597.389 360.616L599.029 362.314C599.179 362.469 599.405 362.454 599.533 362.28C599.661 362.107 599.644 361.84 599.494 361.685L598.201 360.346L599.687 360.272C599.942 360.26 600.131 360.005 600.109 359.703C600.087 359.402 599.861 359.167 599.606 359.18L597.289 359.295L597.054 356.19C597.032 355.889 596.806 355.655 596.55 355.668C596.295 355.682 596.106 355.937 596.129 356.238L596.29 358.367L595.031 357.064C594.881 356.909 594.655 356.924 594.527 357.098Z" fill="#8DE3CE"/>
<path fill-rule="evenodd" clip-rule="evenodd" d="M499.633 437.629C499.505 437.802 499.522 438.069 499.672 438.225L501.273 439.882L498.848 440.002C498.592 440.014 498.403 440.269 498.425 440.571C498.448 440.872 498.673 441.107 498.929 441.094L501.551 440.964L501.758 443.688C501.78 443.989 502.006 444.223 502.262 444.21C502.517 444.196 502.706 443.941 502.683 443.639L502.495 441.147L504.135 442.845C504.285 443 504.511 442.985 504.639 442.812C504.767 442.638 504.75 442.371 504.6 442.216L503.307 440.877L504.793 440.804C505.048 440.791 505.237 440.536 505.215 440.234C505.193 439.933 504.967 439.699 504.712 439.711L502.395 439.826L502.16 436.723C502.137 436.421 501.911 436.188 501.656 436.201C501.4 436.214 501.211 436.469 501.234 436.771L501.395 438.898L500.137 437.596C499.987 437.44 499.761 437.455 499.633 437.629Z" fill="#8DE3CE"/>
<path fill-rule="evenodd" clip-rule="evenodd" d="M547.167 435.762C547.039 435.936 547.056 436.202 547.206 436.358L548.807 438.015L546.382 438.135C546.126 438.148 545.937 438.402 545.959 438.704C545.982 439.006 546.207 439.24 546.463 439.227L549.086 439.097L549.292 441.819C549.315 442.121 549.541 442.355 549.797 442.341C550.052 442.328 550.241 442.073 550.218 441.771L550.029 439.28L551.669 440.978C551.819 441.133 552.045 441.118 552.173 440.945C552.302 440.771 552.284 440.504 552.134 440.349L550.841 439.01L552.327 438.937C552.582 438.924 552.772 438.669 552.749 438.368C552.727 438.066 552.502 437.832 552.246 437.844L549.929 437.959L549.694 434.855C549.672 434.553 549.446 434.319 549.19 434.333C548.935 434.346 548.746 434.601 548.769 434.903L548.93 437.032L547.672 435.729C547.521 435.573 547.296 435.588 547.167 435.762Z" fill="#8DE3CE"/>
<path fill-rule="evenodd" clip-rule="evenodd" d="M488.328 491.437C488.2 491.61 488.217 491.877 488.367 492.032L489.968 493.689L487.543 493.809C487.287 493.822 487.098 494.077 487.121 494.378C487.143 494.68 487.368 494.914 487.624 494.902L490.247 494.772L490.453 497.494C490.476 497.796 490.701 498.029 490.957 498.016C491.213 498.003 491.401 497.747 491.379 497.446L491.19 494.955L492.83 496.653C492.98 496.808 493.206 496.793 493.334 496.619C493.463 496.446 493.445 496.179 493.295 496.024L492.002 494.685L493.488 494.611C493.743 494.598 493.933 494.344 493.91 494.042C493.888 493.741 493.663 493.506 493.407 493.519L491.09 493.634L490.855 490.529C490.832 490.228 490.606 489.994 490.351 490.007C490.095 490.021 489.906 490.276 489.929 490.577L490.09 492.706L488.832 491.403C488.682 491.248 488.457 491.263 488.328 491.437Z" fill="#8DE3CE"/>
<path fill-rule="evenodd" clip-rule="evenodd" d="M558.512 1544.55C558.384 1544.72 558.402 1544.99 558.552 1545.14L560.152 1546.8L557.727 1546.92C557.471 1546.93 557.282 1547.19 557.305 1547.49C557.327 1547.79 557.552 1548.02 557.808 1548.01L560.431 1547.88L560.637 1550.6C560.66 1550.91 560.886 1551.14 561.142 1551.13C561.397 1551.11 561.586 1550.86 561.563 1550.56L561.375 1548.07L563.014 1549.76C563.164 1549.92 563.39 1549.9 563.518 1549.73C563.647 1549.56 563.629 1549.29 563.479 1549.13L562.186 1547.79L563.672 1547.72C563.927 1547.71 564.117 1547.45 564.094 1547.15C564.072 1546.85 563.847 1546.62 563.591 1546.63L561.275 1546.74L561.04 1543.64C561.017 1543.34 560.791 1543.1 560.535 1543.12C560.28 1543.13 560.091 1543.39 560.114 1543.69L560.275 1545.82L559.017 1544.51C558.867 1544.36 558.641 1544.37 558.512 1544.55Z" fill="#8DE3CE"/>
<path fill-rule="evenodd" clip-rule="evenodd" d="M595.896 442.906C595.768 443.08 595.785 443.347 595.935 443.502L597.534 445.158L595.111 445.278C594.855 445.291 594.666 445.545 594.688 445.847C594.711 446.149 594.936 446.383 595.192 446.37L597.815 446.24L598.021 448.962C598.044 449.264 598.27 449.498 598.525 449.484C598.781 449.471 598.97 449.216 598.947 448.914L598.758 446.425L600.398 448.122C600.548 448.278 600.774 448.263 600.902 448.089C601.03 447.916 601.013 447.649 600.863 447.494L599.568 446.153L601.056 446.08C601.311 446.067 601.5 445.812 601.478 445.511C601.456 445.209 601.23 444.975 600.975 444.987L598.658 445.102L598.423 441.998C598.401 441.696 598.175 441.462 597.919 441.476C597.664 441.489 597.475 441.744 597.498 442.046L597.659 444.176L596.4 442.873C596.25 442.718 596.024 442.733 595.896 442.906Z" fill="#8DE3CE"/>
<path fill-rule="evenodd" clip-rule="evenodd" d="M502.727 1606.72C502.598 1606.89 502.616 1607.16 502.766 1607.31L504.365 1608.97L501.942 1609.09C501.686 1609.1 501.497 1609.36 501.519 1609.66C501.541 1609.96 501.767 1610.19 502.022 1610.18L504.646 1610.05L504.852 1612.77C504.875 1613.08 505.1 1613.31 505.356 1613.3C505.612 1613.28 505.8 1613.03 505.778 1612.73L505.589 1610.24L507.228 1611.93C507.378 1612.09 507.604 1612.07 507.733 1611.9C507.861 1611.73 507.844 1611.46 507.693 1611.3L506.399 1609.96L507.886 1609.89C508.142 1609.88 508.331 1609.62 508.309 1609.32C508.286 1609.02 508.061 1608.79 507.805 1608.8L505.489 1608.91L505.254 1605.81C505.231 1605.51 505.005 1605.27 504.75 1605.29C504.494 1605.3 504.306 1605.56 504.328 1605.86L504.49 1607.99L503.231 1606.68C503.081 1606.53 502.855 1606.54 502.727 1606.72Z" fill="#8DE3CE"/>
<path fill-rule="evenodd" clip-rule="evenodd" d="M481.154 1565.5C481.026 1565.68 481.043 1565.94 481.193 1566.1L482.792 1567.75L480.369 1567.87C480.113 1567.89 479.924 1568.14 479.946 1568.44C479.969 1568.74 480.194 1568.98 480.449 1568.97L483.072 1568.84L483.278 1571.56C483.301 1571.86 483.527 1572.09 483.783 1572.08C484.038 1572.07 484.227 1571.81 484.204 1571.51L484.016 1569.02L485.656 1570.72C485.806 1570.87 486.032 1570.86 486.16 1570.68C486.288 1570.51 486.271 1570.24 486.121 1570.09L484.826 1568.75L486.313 1568.68C486.569 1568.66 486.758 1568.41 486.736 1568.11C486.714 1567.8 486.488 1567.57 486.233 1567.58L483.915 1567.7L483.681 1564.59C483.658 1564.29 483.432 1564.06 483.176 1564.07C482.921 1564.09 482.732 1564.34 482.755 1564.64L482.916 1566.77L481.658 1565.47C481.508 1565.31 481.282 1565.33 481.154 1565.5Z" fill="#8DE3CE"/>
<path fill-rule="evenodd" clip-rule="evenodd" d="M596.299 1542.58C596.17 1542.76 596.188 1543.02 596.338 1543.18L597.937 1544.84L595.514 1544.96C595.259 1544.97 595.069 1545.22 595.092 1545.52C595.114 1545.83 595.339 1546.06 595.595 1546.05L598.218 1545.92L598.424 1548.64C598.447 1548.94 598.672 1549.18 598.928 1549.16C599.184 1549.15 599.372 1548.89 599.35 1548.59L599.161 1546.1L600.8 1547.8C600.95 1547.96 601.176 1547.94 601.305 1547.77C601.433 1547.59 601.415 1547.33 601.265 1547.17L599.971 1545.83L601.459 1545.76C601.714 1545.74 601.904 1545.49 601.881 1545.19C601.859 1544.89 601.634 1544.65 601.378 1544.67L599.061 1544.78L598.826 1541.68C598.803 1541.38 598.577 1541.14 598.322 1541.15C598.066 1541.17 597.877 1541.42 597.9 1541.72L598.061 1543.85L596.803 1542.55C596.653 1542.4 596.427 1542.41 596.299 1542.58Z" fill="#8DE3CE"/>
<path d="M518.227 403.847C519.548 405.215 519.7 407.502 518.628 408.951C517.557 410.399 515.622 410.526 514.301 409.158C512.979 407.79 512.828 405.503 513.899 404.055C514.971 402.606 516.906 402.48 518.227 403.847Z" stroke="#A7A7A7" stroke-width="2"/>
<path d="M534.551 1537.77C535.872 1539.14 536.024 1541.43 534.953 1542.88C533.881 1544.33 531.946 1544.45 530.625 1543.08C529.304 1541.72 529.152 1539.43 530.224 1537.98C531.295 1536.53 533.23 1536.41 534.551 1537.77Z" stroke="#A7A7A7" stroke-width="2"/>
<path d="M615.155 397.6C616.476 398.968 616.627 401.254 615.556 402.703C614.485 404.152 612.55 404.278 611.228 402.91C609.907 401.542 609.756 399.256 610.827 397.807C611.898 396.358 613.833 396.232 615.155 397.6Z" stroke="#A7A7A7" stroke-width="2"/>
<path d="M474.507 1523.36C475.828 1524.73 475.98 1527.01 474.909 1528.46C473.837 1529.91 471.902 1530.04 470.581 1528.67C469.26 1527.3 469.108 1525.01 470.18 1523.57C471.251 1522.12 473.186 1521.99 474.507 1523.36Z" stroke="#A7A7A7" stroke-width="2"/>
<path d="M525.814 490.542C527.136 491.91 527.287 494.196 526.216 495.645C525.145 497.094 523.209 497.22 521.888 495.852C520.567 494.484 520.416 492.198 521.487 490.749C522.558 489.3 524.493 489.174 525.814 490.542Z" stroke="#A7A7A7" stroke-width="2"/>
<path d="M531.862 1603.84C533.183 1605.2 533.335 1607.49 532.264 1608.94C531.192 1610.39 529.257 1610.51 527.936 1609.15C526.615 1607.78 526.463 1605.49 527.535 1604.04C528.606 1602.59 530.541 1602.47 531.862 1603.84Z" stroke="#A7A7A7" stroke-width="2"/>
<path d="M587.234 380.908C588.555 382.276 588.706 384.562 587.635 386.011C586.564 387.46 584.629 387.586 583.308 386.218C581.986 384.851 581.835 382.564 582.906 381.115C583.977 379.666 585.913 379.54 587.234 380.908Z" stroke="#A7A7A7" stroke-width="2"/>
</svg>
