<svg width="402" height="1136" viewBox="0 0 402 1136" fill="none" xmlns="http://www.w3.org/2000/svg">
<path fill-rule="evenodd" clip-rule="evenodd" d="M257.374 588.11C257.27 588.306 257.344 588.55 257.54 588.654L259.575 589.731L256.996 590.518C256.723 590.601 256.57 590.889 256.653 591.161C256.736 591.433 257.024 591.586 257.296 591.503L260.087 590.652L260.842 593.107C260.925 593.378 261.213 593.531 261.485 593.448C261.757 593.364 261.91 593.076 261.826 592.804L261.136 590.559L263.22 591.663C263.416 591.767 263.66 591.693 263.764 591.496C263.867 591.3 263.793 591.057 263.597 590.953L261.953 590.083L263.536 589.6C263.808 589.517 263.961 589.229 263.878 588.957C263.795 588.685 263.507 588.532 263.235 588.615L260.77 589.367L259.91 586.568C259.827 586.296 259.538 586.144 259.267 586.227C258.995 586.311 258.842 586.599 258.926 586.871L259.515 588.791L257.917 587.944C257.721 587.84 257.477 587.914 257.374 588.11Z" fill="#8DE3CE"/>
<path fill-rule="evenodd" clip-rule="evenodd" d="M305.91 709.313C305.806 709.509 305.881 709.752 306.077 709.856L308.111 710.934L305.532 711.72C305.26 711.803 305.107 712.091 305.19 712.363C305.273 712.635 305.561 712.789 305.833 712.706L308.624 711.854L309.378 714.309C309.462 714.581 309.75 714.734 310.022 714.65C310.294 714.566 310.446 714.278 310.363 714.006L309.673 711.761L311.757 712.866C311.953 712.969 312.196 712.895 312.3 712.699C312.404 712.503 312.329 712.259 312.133 712.156L310.49 711.285L312.072 710.802C312.344 710.719 312.498 710.432 312.415 710.159C312.332 709.887 312.044 709.734 311.772 709.817L309.307 710.569L308.447 707.771C308.363 707.499 308.075 707.346 307.803 707.43C307.531 707.513 307.378 707.801 307.462 708.073L308.052 709.993L306.453 709.146C306.257 709.042 306.014 709.117 305.91 709.313Z" fill="#8DE3CE"/>
<path fill-rule="evenodd" clip-rule="evenodd" d="M321.137 558.731C321.034 558.927 321.108 559.171 321.304 559.275L323.338 560.352L320.759 561.139C320.487 561.222 320.334 561.51 320.417 561.782C320.5 562.054 320.788 562.207 321.06 562.124L323.851 561.273L324.606 563.728C324.689 563.999 324.977 564.152 325.249 564.069C325.521 563.985 325.674 563.697 325.59 563.425L324.9 561.18L326.984 562.284C327.18 562.388 327.424 562.313 327.527 562.117C327.631 561.921 327.557 561.678 327.361 561.574L325.717 560.704L327.3 560.221C327.572 560.138 327.725 559.85 327.642 559.578C327.559 559.306 327.271 559.153 326.999 559.236L324.534 559.988L323.674 557.189C323.591 556.917 323.302 556.765 323.03 556.848C322.759 556.932 322.606 557.22 322.689 557.492L323.279 559.412L321.681 558.565C321.484 558.461 321.241 558.535 321.137 558.731Z" fill="#8DE3CE"/>
<path fill-rule="evenodd" clip-rule="evenodd" d="M235.005 659.497C234.902 659.693 234.976 659.937 235.172 660.04L237.206 661.118L234.627 661.905C234.355 661.988 234.202 662.276 234.285 662.548C234.368 662.82 234.656 662.973 234.928 662.89L237.719 662.039L238.473 664.494C238.557 664.765 238.845 664.918 239.117 664.835C239.389 664.751 239.542 664.463 239.458 664.191L238.768 661.946L240.852 663.05C241.048 663.154 241.292 663.079 241.395 662.883C241.499 662.687 241.425 662.444 241.229 662.34L239.585 661.47L241.167 660.987C241.439 660.904 241.593 660.616 241.51 660.344C241.427 660.072 241.139 659.919 240.867 660.002L238.402 660.754L237.542 657.955C237.458 657.683 237.17 657.531 236.898 657.614C236.626 657.698 236.474 657.986 236.557 658.258L237.147 660.178L235.549 659.33C235.353 659.227 235.109 659.301 235.005 659.497Z" fill="#8DE3CE"/>
<path fill-rule="evenodd" clip-rule="evenodd" d="M388.013 679.648C387.909 679.844 387.983 680.087 388.179 680.191L390.214 681.269L387.634 682.056C387.362 682.139 387.209 682.426 387.292 682.699C387.375 682.971 387.663 683.124 387.935 683.041L390.726 682.189L391.48 684.644C391.564 684.916 391.852 685.069 392.124 684.985C392.396 684.902 392.549 684.614 392.465 684.342L391.775 682.096L393.859 683.201C394.056 683.305 394.299 683.23 394.403 683.034C394.506 682.838 394.432 682.595 394.236 682.491L392.593 681.62L394.175 681.138C394.447 681.055 394.6 680.767 394.517 680.495C394.434 680.223 394.146 680.069 393.874 680.152L391.409 680.904L390.549 678.106C390.465 677.834 390.177 677.681 389.905 677.765C389.633 677.848 389.481 678.137 389.564 678.408L390.154 680.328L388.556 679.481C388.36 679.377 388.116 679.452 388.013 679.648Z" fill="#8DE3CE"/>
<path fill-rule="evenodd" clip-rule="evenodd" d="M285.682 644.52C285.578 644.716 285.653 644.959 285.849 645.063L287.883 646.141L285.304 646.928C285.031 647.011 284.878 647.298 284.961 647.571C285.044 647.843 285.332 647.996 285.604 647.913L288.395 647.061L289.15 649.516C289.233 649.788 289.521 649.941 289.793 649.857C290.065 649.774 290.218 649.486 290.134 649.214L289.444 646.968L291.529 648.073C291.725 648.177 291.968 648.102 292.072 647.906C292.176 647.71 292.101 647.467 291.905 647.363L290.262 646.492L291.844 646.01C292.116 645.927 292.269 645.639 292.186 645.367C292.103 645.095 291.815 644.941 291.543 645.024L289.078 645.776L288.218 642.978C288.135 642.706 287.846 642.553 287.575 642.637C287.303 642.72 287.15 643.009 287.234 643.28L287.823 645.2L286.225 644.353C286.029 644.249 285.786 644.324 285.682 644.52Z" fill="#8DE3CE"/>
<path fill-rule="evenodd" clip-rule="evenodd" d="M233.398 712.298C233.294 712.494 233.369 712.737 233.565 712.841L235.599 713.919L233.02 714.706C232.748 714.789 232.595 715.077 232.678 715.349C232.761 715.621 233.048 715.774 233.321 715.691L236.112 714.84L236.866 717.294C236.95 717.566 237.238 717.719 237.51 717.635C237.782 717.552 237.934 717.264 237.851 716.992L237.161 714.747L239.245 715.851C239.441 715.955 239.684 715.88 239.788 715.684C239.892 715.488 239.817 715.245 239.621 715.141L237.978 714.27L239.56 713.788C239.832 713.705 239.986 713.417 239.903 713.145C239.82 712.873 239.532 712.72 239.26 712.803L236.795 713.554L235.935 710.756C235.851 710.484 235.563 710.331 235.291 710.415C235.019 710.498 234.867 710.787 234.95 711.058L235.54 712.978L233.941 712.131C233.745 712.027 233.502 712.102 233.398 712.298Z" fill="#8DE3CE"/>
<path fill-rule="evenodd" clip-rule="evenodd" d="M321.899 754.648C321.795 754.844 321.87 755.087 322.066 755.191L324.1 756.269L321.521 757.055C321.249 757.138 321.096 757.426 321.179 757.698C321.262 757.97 321.55 758.124 321.822 758.041L324.613 757.189L325.367 759.644C325.451 759.916 325.739 760.068 326.011 759.985C326.283 759.901 326.435 759.613 326.352 759.341L325.662 757.096L327.746 758.2C327.942 758.304 328.185 758.23 328.289 758.034C328.393 757.838 328.318 757.594 328.122 757.49L326.479 756.62L328.061 756.137C328.333 756.054 328.487 755.766 328.404 755.494C328.321 755.222 328.033 755.069 327.761 755.152L325.296 755.904L324.436 753.106C324.352 752.834 324.064 752.681 323.792 752.765C323.52 752.848 323.368 753.136 323.451 753.408L324.041 755.328L322.442 754.481C322.246 754.377 322.003 754.451 321.899 754.648Z" fill="#8DE3CE"/>
<path fill-rule="evenodd" clip-rule="evenodd" d="M339.405 637.522C339.301 637.718 339.375 637.962 339.572 638.065L341.606 639.143L339.026 639.93C338.754 640.013 338.601 640.301 338.684 640.573C338.767 640.845 339.055 640.998 339.327 640.915L342.118 640.064L342.873 642.519C342.956 642.791 343.244 642.943 343.516 642.86C343.788 642.776 343.941 642.488 343.857 642.216L343.167 639.971L345.252 641.075C345.448 641.179 345.691 641.104 345.795 640.908C345.899 640.712 345.824 640.469 345.628 640.365L343.985 639.495L345.567 639.012C345.839 638.929 345.992 638.641 345.909 638.369C345.826 638.097 345.538 637.944 345.266 638.027L342.801 638.779L341.941 635.98C341.857 635.708 341.569 635.556 341.297 635.639C341.026 635.723 340.873 636.011 340.956 636.283L341.546 638.202L339.948 637.355C339.752 637.252 339.509 637.326 339.405 637.522Z" fill="#8DE3CE"/>
<path fill-rule="evenodd" clip-rule="evenodd" d="M274.167 827.565C274.063 827.761 274.138 828.005 274.334 828.108L276.368 829.186L273.789 829.973C273.517 830.056 273.363 830.344 273.446 830.616C273.529 830.888 273.817 831.041 274.089 830.958L276.881 830.107L277.635 832.561C277.719 832.833 278.007 832.986 278.279 832.903C278.551 832.819 278.703 832.531 278.62 832.259L277.93 830.014L280.014 831.118C280.21 831.222 280.453 831.147 280.557 830.951C280.661 830.755 280.586 830.512 280.39 830.408L278.747 829.538L280.329 829.055C280.601 828.972 280.754 828.684 280.671 828.412C280.588 828.14 280.301 827.987 280.029 828.07L277.563 828.822L276.704 826.023C276.62 825.751 276.332 825.599 276.06 825.682C275.788 825.766 275.635 826.054 275.719 826.326L276.309 828.246L274.71 827.398C274.514 827.295 274.271 827.369 274.167 827.565Z" fill="#8DE3CE"/>
<path fill-rule="evenodd" clip-rule="evenodd" d="M242.933 795.555C242.829 795.751 242.904 795.995 243.1 796.099L245.134 797.176L242.554 797.963C242.282 798.046 242.129 798.334 242.212 798.606C242.295 798.878 242.583 799.031 242.855 798.948L245.646 798.097L246.401 800.552C246.484 800.824 246.772 800.976 247.044 800.893C247.316 800.809 247.469 800.521 247.385 800.249L246.695 798.004L248.78 799.108C248.976 799.212 249.219 799.138 249.323 798.941C249.427 798.745 249.352 798.502 249.156 798.398L247.513 797.528L249.095 797.045C249.367 796.962 249.52 796.674 249.437 796.402C249.354 796.13 249.066 795.977 248.794 796.06L246.329 796.812L245.469 794.013C245.386 793.741 245.097 793.589 244.826 793.672C244.554 793.756 244.401 794.044 244.485 794.316L245.074 796.236L243.476 795.389C243.28 795.285 243.037 795.359 242.933 795.555Z" fill="#8DE3CE"/>
<path fill-rule="evenodd" clip-rule="evenodd" d="M362.09 742.298C361.986 742.494 362.061 742.737 362.257 742.841L364.291 743.919L361.712 744.706C361.439 744.789 361.286 745.076 361.369 745.348C361.452 745.62 361.74 745.774 362.012 745.691L364.803 744.839L365.558 747.294C365.641 747.566 365.929 747.719 366.201 747.635C366.473 747.552 366.626 747.263 366.542 746.992L365.852 744.746L367.937 745.851C368.133 745.955 368.376 745.88 368.48 745.684C368.584 745.488 368.509 745.245 368.313 745.141L366.67 744.27L368.252 743.787C368.524 743.704 368.677 743.417 368.594 743.145C368.511 742.873 368.223 742.719 367.951 742.802L365.486 743.554L364.626 740.756C364.543 740.484 364.254 740.331 363.983 740.415C363.711 740.498 363.558 740.786 363.641 741.058L364.231 742.978L362.633 742.131C362.437 742.027 362.194 742.102 362.09 742.298Z" fill="#8DE3CE"/>
<circle cx="246.77" cy="626.141" r="3.41937" transform="rotate(-62.0812 246.77 626.141)" stroke="#A7A7A7" stroke-width="2"/>
<circle cx="293.255" cy="758.078" r="3.41937" transform="rotate(-62.0812 293.255 758.078)" stroke="#A7A7A7" stroke-width="2"/>
<circle cx="349.628" cy="593.346" r="3.41937" transform="rotate(-62.0812 349.628 593.346)" stroke="#A7A7A7" stroke-width="2"/>
<circle cx="398.164" cy="714.548" r="3.41937" transform="rotate(-62.0812 398.164 714.548)" stroke="#A7A7A7" stroke-width="2"/>
<circle cx="225.958" cy="761.52" r="3.41937" transform="rotate(-62.0812 225.958 761.52)" stroke="#A7A7A7" stroke-width="2"/>
<circle cx="271.888" cy="704.015" r="3.41937" transform="rotate(-62.0812 271.888 704.015)" stroke="#A7A7A7" stroke-width="2"/>
<circle cx="303.3" cy="819.78" r="3.41937" transform="rotate(-62.0812 303.3 819.78)" stroke="#A7A7A7" stroke-width="2"/>
<circle cx="316.379" cy="585.731" r="3.41937" transform="rotate(-62.0812 316.379 585.731)" stroke="#A7A7A7" stroke-width="2"/>
</svg>
