<svg width="149" height="809" viewBox="0 0 149 809" fill="none" xmlns="http://www.w3.org/2000/svg">
<path fill-rule="evenodd" clip-rule="evenodd" d="M1.22706 678.922C1.11851 678.986 1.0827 679.127 1.14706 679.235L1.81489 680.361L0.329788 679.979C0.173136 679.938 0.0134156 680.033 -0.0269566 680.189C-0.0673289 680.346 0.0269353 680.506 0.183588 680.546L1.79093 680.96L1.42936 682.375C1.38931 682.532 1.4839 682.691 1.64064 682.732C1.79737 682.772 1.9569 682.677 1.99695 682.52L2.32763 681.226L3.01175 682.38C3.07612 682.488 3.21629 682.524 3.32484 682.46C3.43339 682.395 3.46921 682.255 3.40484 682.147L2.86546 681.237L3.77642 681.472C3.93307 681.512 4.09279 681.418 4.13317 681.261C4.17354 681.105 4.07927 680.945 3.92262 680.905L2.50325 680.539L2.91548 678.925C2.95553 678.769 2.86094 678.609 2.7042 678.569C2.54747 678.529 2.38794 678.624 2.34789 678.78L2.06507 679.887L1.54015 679.002C1.47578 678.893 1.33561 678.858 1.22706 678.922Z" fill="#8DE3CE"/>
<path fill-rule="evenodd" clip-rule="evenodd" d="M-0.473642 443.745C-0.599838 443.745 -0.70214 443.847 -0.70214 443.973V445.282L-1.78421 444.196C-1.89836 444.081 -2.08382 444.081 -2.19845 444.195C-2.31307 444.309 -2.31346 444.494 -2.1993 444.609L-1.02793 445.785L-2.06067 446.818C-2.17506 446.932 -2.17506 447.118 -2.06067 447.232C-1.94628 447.347 -1.76082 447.347 -1.64643 447.232L-0.70214 446.288V447.629C-0.70214 447.755 -0.599838 447.858 -0.473642 447.858C-0.347445 447.858 -0.245143 447.755 -0.245143 447.629V446.571L0.418813 447.238C0.532967 447.353 0.718428 447.353 0.833054 447.239C0.947679 447.125 0.948061 446.939 0.833907 446.825L-0.200299 445.786L0.977103 444.609C1.09149 444.494 1.09149 444.309 0.977103 444.194C0.862713 444.08 0.677251 444.08 0.562861 444.194L-0.245143 445.002V443.973C-0.245143 443.847 -0.347445 443.745 -0.473642 443.745Z" fill="#8DE3CE"/>
<path fill-rule="evenodd" clip-rule="evenodd" d="M84.8264 533.186C84.7179 533.25 84.6821 533.39 84.7464 533.499L85.4143 534.625L83.9292 534.242C83.7725 534.202 83.6128 534.296 83.5724 534.453C83.532 534.609 83.6263 534.769 83.783 534.809L85.3903 535.224L85.0287 536.639C84.9887 536.795 85.0833 536.955 85.24 536.995C85.3967 537.035 85.5563 536.94 85.5963 536.784L85.927 535.49L86.6111 536.643C86.6755 536.752 86.8157 536.788 86.9242 536.723C87.0328 536.659 87.0686 536.519 87.0042 536.41L86.4648 535.501L87.3758 535.735C87.5324 535.776 87.6922 535.681 87.7325 535.525C87.7729 535.368 87.6786 535.208 87.522 535.168L86.1026 534.802L86.5148 533.189C86.5549 533.032 86.4603 532.873 86.3036 532.833C86.1468 532.793 85.9873 532.887 85.9473 533.044L85.6644 534.151L85.1395 533.266C85.0751 533.157 84.935 533.121 84.8264 533.186Z" fill="#8DE3CE"/>
<path fill-rule="evenodd" clip-rule="evenodd" d="M72.4548 606.402C72.3463 606.467 72.3105 606.607 72.3748 606.715L73.0426 607.842L71.5575 607.459C71.4009 607.419 71.2412 607.513 71.2008 607.669C71.1604 607.826 71.2547 607.986 71.4113 608.026L73.0185 608.44L72.6569 609.855C72.6169 610.012 72.7115 610.172 72.8682 610.212C73.0249 610.252 73.1845 610.157 73.2245 610.001L73.5553 608.706L74.2395 609.86C74.3039 609.969 74.4441 610.005 74.5526 609.94C74.6612 609.876 74.697 609.736 74.6326 609.627L74.0932 608.717L75.0042 608.952C75.1608 608.993 75.3205 608.898 75.3609 608.742C75.4013 608.585 75.307 608.425 75.1504 608.385L73.7308 608.019L74.1431 606.406C74.1831 606.249 74.0885 606.09 73.9318 606.049C73.775 606.009 73.6155 606.104 73.5755 606.261L73.2927 607.367L72.7679 606.482C72.7036 606.374 72.5634 606.338 72.4548 606.402Z" fill="#8DE3CE"/>
<path fill-rule="evenodd" clip-rule="evenodd" d="M40.8859 683.565C40.7773 683.629 40.7415 683.769 40.8059 683.878L41.4738 685.004L39.9885 684.621C39.8318 684.581 39.6721 684.675 39.6317 684.832C39.5914 684.988 39.6856 685.148 39.8423 685.189L41.4495 685.603L41.0879 687.018C41.0478 687.175 41.1424 687.334 41.2992 687.374C41.4559 687.414 41.6154 687.32 41.6555 687.163L41.9862 685.868L42.6706 687.022C42.7349 687.131 42.8751 687.167 42.9837 687.102C43.0922 687.038 43.128 686.898 43.0637 686.789L42.5244 685.88L43.4351 686.114C43.5918 686.155 43.7515 686.061 43.7919 685.904C43.8322 685.747 43.738 685.588 43.5813 685.547L42.1618 685.181L42.574 683.568C42.614 683.411 42.5194 683.252 42.3627 683.212C42.206 683.172 42.0465 683.266 42.0064 683.423L41.7237 684.529L41.199 683.645C41.1346 683.536 40.9944 683.5 40.8859 683.565Z" fill="#8DE3CE"/>
<path fill-rule="evenodd" clip-rule="evenodd" d="M31.2709 467.965C31.1447 467.965 31.0424 468.068 31.0424 468.194V469.503L29.9602 468.416C29.846 468.302 29.6606 468.301 29.5459 468.416C29.4313 468.53 29.4309 468.715 29.5451 468.83L30.7165 470.006L29.6837 471.039C29.5693 471.153 29.5693 471.339 29.6837 471.453C29.7981 471.567 29.9836 471.567 30.098 471.453L31.0424 470.508V471.85C31.0424 471.976 31.1447 472.078 31.2709 472.078C31.3971 472.078 31.4994 471.976 31.4994 471.85V470.792L32.1632 471.459C32.2774 471.573 32.4628 471.574 32.5774 471.46C32.6921 471.345 32.6924 471.16 32.5783 471.045L31.5441 470.007L32.7215 468.829C32.8359 468.715 32.8359 468.53 32.7215 468.415C32.6071 468.301 32.4216 468.301 32.3072 468.415L31.4994 469.223V468.194C31.4994 468.068 31.3971 467.965 31.2709 467.965Z" fill="#8DE3CE"/>
<path fill-rule="evenodd" clip-rule="evenodd" d="M52.8071 561.204C52.6986 561.268 52.6628 561.409 52.7271 561.517L53.395 562.643L51.9099 562.261C51.7532 562.22 51.5935 562.315 51.5531 562.471C51.5127 562.628 51.607 562.788 51.7637 562.828L53.371 563.242L53.0094 564.657C52.9694 564.814 53.064 564.973 53.2207 565.014C53.3775 565.054 53.537 564.959 53.577 564.802L53.9077 563.508L54.5918 564.662C54.6562 564.77 54.7964 564.806 54.9049 564.742C55.0135 564.677 55.0493 564.537 54.9849 564.429L54.4455 563.519L55.3565 563.754C55.5131 563.794 55.6729 563.7 55.7132 563.543C55.7536 563.387 55.6594 563.227 55.5027 563.187L54.0833 562.821L54.4956 561.207C54.5356 561.051 54.441 560.891 54.2843 560.851C54.1275 560.811 53.968 560.906 53.928 561.062L53.6452 562.169L53.1202 561.284C53.0559 561.175 52.9157 561.14 52.8071 561.204Z" fill="#8DE3CE"/>
<path fill-rule="evenodd" clip-rule="evenodd" d="M37.5004 762.079C37.3918 762.144 37.356 762.284 37.4204 762.392L38.0883 763.519L36.603 763.136C36.4463 763.096 36.2866 763.19 36.2462 763.346C36.2059 763.503 36.3001 763.663 36.4568 763.703L38.064 764.117L37.7024 765.532C37.6623 765.689 37.7569 765.849 37.9137 765.889C38.0704 765.929 38.2299 765.834 38.27 765.677L38.6008 764.383L39.2851 765.537C39.3494 765.646 39.4896 765.681 39.5982 765.617C39.7067 765.553 39.7425 765.412 39.6782 765.304L39.1389 764.394L40.0496 764.629C40.2063 764.669 40.366 764.575 40.4064 764.419C40.4467 764.262 40.3525 764.102 40.1958 764.062L38.7763 763.696L39.1885 762.083C39.2285 761.926 39.134 761.766 38.9772 761.726C38.8205 761.686 38.661 761.781 38.6209 761.938L38.3382 763.044L37.8135 762.159C37.7491 762.051 37.6089 762.015 37.5004 762.079Z" fill="#8DE3CE"/>
<path fill-rule="evenodd" clip-rule="evenodd" d="M-1.75523 714.693C-1.86377 714.758 -1.89959 714.898 -1.83523 715.007L-1.16736 716.133L-2.65267 715.75C-2.80933 715.71 -2.96905 715.804 -3.00942 715.961C-3.04979 716.117 -2.95553 716.277 -2.79887 716.317L-1.19153 716.732L-1.5531 718.147C-1.59315 718.303 -1.49856 718.463 -1.34182 718.503C-1.18509 718.543 -1.02556 718.448 -0.985513 718.292L-0.654778 716.997L0.0294649 718.151C0.0938299 718.26 0.234004 718.296 0.342552 718.231C0.4511 718.167 0.486917 718.027 0.422552 717.918L-0.116788 717.009L0.793959 717.243C0.950611 717.284 1.11033 717.189 1.1507 717.033C1.19108 716.876 1.09681 716.716 0.940159 716.676L-0.479212 716.31L-0.0669819 714.697C-0.0269326 714.54 -0.121525 714.381 -0.278261 714.341C-0.434996 714.301 -0.594522 714.395 -0.634571 714.552L-0.917336 715.658L-1.44214 714.773C-1.5065 714.665 -1.64668 714.629 -1.75523 714.693Z" fill="#8DE3CE"/>
<path fill-rule="evenodd" clip-rule="evenodd" d="M81.8443 568.957C81.7357 569.021 81.6999 569.162 81.7643 569.27L82.4321 570.396L80.947 570.014C80.7903 569.973 80.6306 570.068 80.5902 570.224C80.5499 570.381 80.6441 570.541 80.8008 570.581L82.4081 570.995L82.0465 572.41C82.0065 572.567 82.1011 572.727 82.2578 572.767C82.4146 572.807 82.5741 572.712 82.6141 572.555L82.9448 571.261L83.6289 572.415C83.6933 572.523 83.8335 572.559 83.942 572.495C84.0506 572.431 84.0864 572.29 84.022 572.182L83.4827 571.272L84.3936 571.507C84.5503 571.547 84.71 571.453 84.7504 571.296C84.7907 571.14 84.6965 570.98 84.5398 570.94L83.1204 570.574L83.5327 568.961C83.5727 568.804 83.4781 568.644 83.3214 568.604C83.1647 568.564 83.0051 568.659 82.9651 568.816L82.6823 569.922L82.1573 569.037C82.093 568.929 81.9528 568.893 81.8443 568.957Z" fill="#8DE3CE"/>
<path fill-rule="evenodd" clip-rule="evenodd" d="M36.3745 586.355C36.266 586.42 36.2302 586.56 36.2945 586.669L36.9625 587.795L35.477 587.412C35.3203 587.372 35.1606 587.466 35.1202 587.623C35.0798 587.779 35.1741 587.939 35.3308 587.979L36.9379 588.394L36.5764 589.809C36.5363 589.965 36.6309 590.125 36.7876 590.165C36.9444 590.205 37.1039 590.11 37.1439 589.954L37.4748 588.659L38.1592 589.813C38.2236 589.922 38.3638 589.958 38.4723 589.893C38.5809 589.829 38.6167 589.689 38.5523 589.58L38.013 588.671L38.9236 588.905C39.0802 588.946 39.24 588.851 39.2803 588.695C39.3207 588.538 39.2264 588.378 39.0698 588.338L37.6503 587.972L38.0625 586.359C38.1025 586.202 38.0079 586.043 37.8512 586.003C37.6945 585.963 37.5349 586.057 37.4949 586.214L37.2122 587.32L36.6876 586.435C36.6233 586.327 36.4831 586.291 36.3745 586.355Z" fill="#8DE3CE"/>
<path fill-rule="evenodd" clip-rule="evenodd" d="M66.7763 633.147C66.6677 633.211 66.6319 633.351 66.6963 633.46L67.3642 634.586L65.8789 634.203C65.7222 634.163 65.5625 634.257 65.5221 634.414C65.4817 634.571 65.576 634.73 65.7327 634.771L67.3398 635.185L66.9783 636.6C66.9382 636.757 67.0328 636.916 67.1895 636.956C67.3463 636.996 67.5058 636.902 67.5458 636.745L67.8766 635.45L68.561 636.604C68.6253 636.713 68.7655 636.749 68.874 636.684C68.9826 636.62 69.0184 636.48 68.954 636.371L68.4147 635.462L69.3255 635.697C69.4821 635.737 69.6419 635.643 69.6822 635.486C69.7226 635.329 69.6283 635.17 69.4717 635.129L68.0522 634.763L68.4644 633.15C68.5044 632.994 68.4098 632.834 68.2531 632.794C68.0964 632.754 67.9368 632.848 67.8968 633.005L67.6141 634.112L67.0894 633.227C67.025 633.118 66.8848 633.082 66.7763 633.147Z" fill="#8DE3CE"/>
<path fill-rule="evenodd" clip-rule="evenodd" d="M26.3952 727.223C26.2866 727.287 26.2508 727.427 26.3152 727.536L26.9829 728.662L25.498 728.279C25.3414 728.239 25.1816 728.333 25.1413 728.49C25.1009 728.647 25.1952 728.806 25.3518 728.847L26.959 729.261L26.5974 730.676C26.5574 730.833 26.652 730.992 26.8087 731.032C26.9654 731.072 27.125 730.978 27.165 730.821L27.4957 729.527L28.1799 730.681C28.2442 730.789 28.3844 730.825 28.4929 730.761C28.6015 730.696 28.6373 730.556 28.5729 730.448L28.0335 729.538L28.9447 729.773C29.1013 729.813 29.261 729.719 29.3014 729.562C29.3418 729.405 29.2475 729.246 29.0909 729.205L27.6713 728.84L28.0835 727.226C28.1236 727.07 28.029 726.91 27.8723 726.87C27.7155 726.83 27.556 726.925 27.516 727.081L27.2331 728.188L26.7082 727.303C26.6439 727.194 26.5037 727.158 26.3952 727.223Z" fill="#8DE3CE"/>
<path fill-rule="evenodd" clip-rule="evenodd" d="M109.994 581.486C109.886 581.551 109.85 581.691 109.914 581.799L110.582 582.926L109.097 582.543C108.94 582.503 108.781 582.597 108.74 582.753C108.7 582.91 108.794 583.07 108.951 583.11L110.558 583.524L110.196 584.939C110.156 585.096 110.251 585.256 110.408 585.296C110.564 585.336 110.724 585.241 110.764 585.085L111.095 583.79L111.779 584.944C111.843 585.053 111.983 585.088 112.092 585.024C112.2 584.96 112.236 584.82 112.172 584.711L111.633 583.801L112.544 584.036C112.7 584.077 112.86 583.982 112.9 583.826C112.941 583.669 112.846 583.509 112.69 583.469L111.27 583.103L111.682 581.49C111.722 581.333 111.628 581.174 111.471 581.133C111.314 581.093 111.155 581.188 111.115 581.345L110.832 582.451L110.307 581.566C110.243 581.458 110.103 581.422 109.994 581.486Z" fill="#8DE3CE"/>
<path fill-rule="evenodd" clip-rule="evenodd" d="M21.9922 654.389C21.8836 654.453 21.8478 654.594 21.9122 654.702L22.58 655.828L21.0946 655.446C20.9379 655.405 20.7782 655.5 20.7378 655.656C20.6975 655.813 20.7917 655.973 20.9484 656.013L22.5556 656.427L22.194 657.842C22.1539 657.999 22.2485 658.158 22.4053 658.199C22.562 658.239 22.7215 658.144 22.7616 657.987L23.0924 656.693L23.7769 657.847C23.8412 657.955 23.9814 657.991 24.0899 657.927C24.1985 657.863 24.2343 657.722 24.1699 657.614L23.6306 656.704L24.5412 656.939C24.6979 656.979 24.8576 656.885 24.898 656.728C24.9383 656.572 24.8441 656.412 24.6874 656.372L23.2679 656.006L23.6801 654.393C23.7201 654.236 23.6256 654.076 23.4688 654.036C23.3121 653.996 23.1526 654.091 23.1125 654.247L22.8298 655.354L22.3052 654.469C22.2409 654.361 22.1007 654.325 21.9922 654.389Z" fill="#8DE3CE"/>
<path fill-rule="evenodd" clip-rule="evenodd" d="M16.3207 629.593C16.2122 629.657 16.1763 629.798 16.2407 629.906L16.9086 631.033L15.4233 630.65C15.2666 630.609 15.1069 630.704 15.0665 630.86C15.0262 631.017 15.1204 631.177 15.2771 631.217L16.8843 631.631L16.5227 633.046C16.4826 633.203 16.5772 633.363 16.734 633.403C16.8907 633.443 17.0502 633.348 17.0903 633.191L17.4211 631.897L18.1054 633.051C18.1698 633.159 18.3099 633.195 18.4185 633.131C18.527 633.067 18.5628 632.926 18.4985 632.818L17.9592 631.908L18.8699 632.143C19.0266 632.183 19.1863 632.089 19.2267 631.932C19.267 631.776 19.1728 631.616 19.0161 631.576L17.5966 631.21L18.0088 629.597C18.0489 629.44 17.9543 629.28 17.7975 629.24C17.6408 629.2 17.4813 629.295 17.4412 629.452L17.1585 630.558L16.6338 629.673C16.5694 629.565 16.4292 629.529 16.3207 629.593Z" fill="#8DE3CE"/>
<path fill-rule="evenodd" clip-rule="evenodd" d="M6.3456 784.803C6.23706 784.868 6.20124 785.008 6.2656 785.116L6.93352 786.243L5.4482 785.86C5.29155 785.82 5.13183 785.914 5.09146 786.07C5.05108 786.227 5.14535 786.387 5.302 786.427L6.90918 786.841L6.5476 788.256C6.50755 788.413 6.60214 788.573 6.75888 788.613C6.91561 788.653 7.07514 788.558 7.11519 788.402L7.44598 787.107L8.13029 788.261C8.19466 788.37 8.33483 788.405 8.44338 788.341C8.55193 788.277 8.58775 788.136 8.52338 788.028L7.98409 787.118L8.89483 787.353C9.05149 787.394 9.21121 787.299 9.25158 787.143C9.29195 786.986 9.19769 786.826 9.04103 786.786L7.6215 786.42L8.03372 784.807C8.07377 784.65 7.97918 784.491 7.82244 784.45C7.66571 784.41 7.50618 784.505 7.46613 784.662L7.18342 785.768L6.65869 784.883C6.59433 784.775 6.45415 784.739 6.3456 784.803Z" fill="#8DE3CE"/>
<path fill-rule="evenodd" clip-rule="evenodd" d="M89.9447 639.067C89.8362 639.131 89.8004 639.271 89.8647 639.38L90.5326 640.506L89.0473 640.123C88.8907 640.083 88.7309 640.177 88.6906 640.334C88.6502 640.491 88.7445 640.65 88.9011 640.691L90.5083 641.105L90.1467 642.52C90.1067 642.677 90.2013 642.836 90.358 642.876C90.5147 642.916 90.6743 642.822 90.7143 642.665L91.0451 641.37L91.7294 642.524C91.7938 642.633 91.934 642.669 92.0425 642.604C92.151 642.54 92.1869 642.4 92.1225 642.291L91.5832 641.382L92.494 641.617C92.6506 641.657 92.8103 641.563 92.8507 641.406C92.8911 641.249 92.7968 641.09 92.6402 641.049L91.2206 640.683L91.6328 639.07C91.6729 638.914 91.5783 638.754 91.4216 638.714C91.2648 638.674 91.1053 638.768 91.0652 638.925L90.7825 640.032L90.2578 639.147C90.1934 639.038 90.0533 639.002 89.9447 639.067Z" fill="#8DE3CE"/>
<circle cx="68.4059" cy="548.501" r="1.51349" transform="rotate(-30.6664 68.4059 548.501)" stroke="#A7A7A7" stroke-width="2"/>
<circle cx="51.8566" cy="626.32" r="1.51349" transform="rotate(-30.6664 51.8566 626.32)" stroke="#A7A7A7" stroke-width="2"/>
<circle cx="44.4532" cy="708.811" r="1.51349" transform="rotate(-30.6664 44.4532 708.811)" stroke="#A7A7A7" stroke-width="2"/>
<circle cx="21.4622" cy="491.501" r="1.51349" stroke="#A7A7A7" stroke-width="2"/>
<circle cx="32.0816" cy="782.028" r="1.51349" transform="rotate(-30.6664 32.0816 782.028)" stroke="#A7A7A7" stroke-width="2"/>
<circle cx="115.681" cy="636.292" r="1.51349" transform="rotate(-30.6664 115.681 636.292)" stroke="#A7A7A7" stroke-width="2"/>
<circle cx="18.1715" cy="608.041" r="1.51349" transform="rotate(-30.6664 18.1715 608.041)" stroke="#A7A7A7" stroke-width="2"/>
<circle cx="57.5118" cy="593.746" r="1.51349" transform="rotate(-30.6664 57.5118 593.746)" stroke="#A7A7A7" stroke-width="2"/>
<circle cx="38.4403" cy="659.247" r="1.51349" transform="rotate(-30.6664 38.4403 659.247)" stroke="#A7A7A7" stroke-width="2"/>
<circle cx="30.5724" cy="695.259" r="1.51349" transform="rotate(-30.6664 30.5724 695.259)" stroke="#A7A7A7" stroke-width="2"/>
<circle cx="16.4354" cy="472.764" r="1.51349" stroke="#A7A7A7" stroke-width="2"/>
<circle cx="114.172" cy="549.522" r="1.51349" transform="rotate(-30.6664 114.172 549.522)" stroke="#A7A7A7" stroke-width="2"/>
<path fill-rule="evenodd" clip-rule="evenodd" d="M13.5291 352.383C13.4894 352.503 13.5543 352.632 13.674 352.672L14.9169 353.084L13.5446 353.77C13.3999 353.842 13.3412 354.018 13.4134 354.162C13.4857 354.307 13.6616 354.366 13.8064 354.294L15.2914 353.552L15.9467 354.857C16.0192 355.002 16.1953 355.06 16.3399 354.988C16.4844 354.915 16.5428 354.739 16.4702 354.595L15.8708 353.401L17.1442 353.823C17.264 353.862 17.3933 353.798 17.433 353.678C17.4727 353.558 17.4078 353.429 17.2881 353.389L16.2843 353.056L17.1257 352.636C17.2704 352.564 17.3292 352.388 17.2569 352.243C17.1846 352.098 17.0087 352.04 16.864 352.112L15.5527 352.767L14.8057 351.279C14.7332 351.134 14.5571 351.076 14.4125 351.148C14.268 351.221 14.2096 351.397 14.2822 351.542L14.7945 352.562L13.8179 352.238C13.6981 352.199 13.5688 352.264 13.5291 352.383Z" fill="#8DE3CE"/>
<path fill-rule="evenodd" clip-rule="evenodd" d="M7.82449 266.493C7.78477 266.613 7.84968 266.742 7.96946 266.782L9.21252 267.194L7.8402 267.88C7.69548 267.952 7.63674 268.128 7.70902 268.272C7.7813 268.417 7.95721 268.476 8.10194 268.404L9.58682 267.662L10.2421 268.967C10.3146 269.112 10.4907 269.17 10.6353 269.098C10.7798 269.025 10.8382 268.849 10.7656 268.705L10.1662 267.51L11.4396 267.933C11.5594 267.972 11.6887 267.908 11.7284 267.788C11.7682 267.668 11.7033 267.539 11.5835 267.499L10.5799 267.166L11.4213 266.746C11.566 266.674 11.6247 266.498 11.5525 266.353C11.4802 266.208 11.3043 266.15 11.1595 266.222L9.84811 266.877L9.10114 265.389C9.02856 265.244 8.85253 265.186 8.70795 265.258C8.56337 265.331 8.505 265.507 8.57757 265.652L9.08985 266.672L8.11329 266.348C7.99351 266.309 7.86421 266.373 7.82449 266.493Z" fill="#8DE3CE"/>
<path fill-rule="evenodd" clip-rule="evenodd" d="M56.7679 327.98C56.7281 328.1 56.793 328.229 56.9128 328.269L58.1559 328.681L56.7836 329.366C56.6388 329.439 56.5801 329.614 56.6524 329.759C56.7247 329.904 56.9006 329.963 57.0453 329.89L58.53 329.149L59.1853 330.454C59.2578 330.599 59.4339 330.657 59.5784 330.585C59.723 330.512 59.7814 330.336 59.7088 330.191L59.1093 328.997L60.383 329.419C60.5028 329.459 60.6321 329.394 60.6718 329.274C60.7115 329.155 60.6466 329.025 60.5268 328.986L59.5233 328.653L60.3646 328.233C60.5094 328.16 60.5681 327.985 60.4958 327.84C60.4235 327.695 60.2476 327.636 60.1029 327.709L58.7913 328.364L58.0443 326.875C57.9717 326.731 57.7957 326.672 57.6511 326.745C57.5066 326.818 57.4482 326.994 57.5208 327.138L58.033 328.159L57.0567 327.835C56.9369 327.795 56.8076 327.86 56.7679 327.98Z" fill="#8DE3CE"/>
<path fill-rule="evenodd" clip-rule="evenodd" d="M-3.9446 317.96C-3.98432 318.08 -3.91941 318.209 -3.79963 318.249L-2.55672 318.661L-3.92886 319.346C-4.07359 319.418 -4.13233 319.594 -4.06005 319.739C-3.98777 319.884 -3.81186 319.942 -3.66713 319.87L-2.18211 319.128L-1.52682 320.434C-1.45425 320.578 -1.27821 320.637 -1.13363 320.564C-0.989056 320.492 -0.930685 320.316 -1.00326 320.171L-1.6026 318.977L-0.329441 319.399C-0.209658 319.439 -0.0803563 319.374 -0.0406384 319.254C-0.000920452 319.134 -0.0658264 319.005 -0.185609 318.965L-1.18932 318.633L-0.347795 318.212C-0.203067 318.14 -0.144333 317.964 -0.21661 317.819C-0.288886 317.675 -0.464803 317.616 -0.609531 317.688L-1.92082 318.343L-2.66776 316.855C-2.74033 316.711 -2.91637 316.652 -3.06095 316.725C-3.20553 316.797 -3.2639 316.973 -3.19132 317.118L-2.67892 318.139L-3.6558 317.815C-3.77558 317.775 -3.90488 317.84 -3.9446 317.96Z" fill="#8DE3CE"/>
<path fill-rule="evenodd" clip-rule="evenodd" d="M26.7847 376.295C26.7449 376.415 26.8099 376.544 26.9296 376.584L28.1726 376.996L26.8004 377.682C26.6557 377.754 26.5969 377.93 26.6692 378.075C26.7415 378.219 26.9174 378.278 27.0621 378.206L28.5471 377.464L29.2024 378.77C29.275 378.914 29.451 378.972 29.5956 378.9C29.7402 378.827 29.7986 378.651 29.726 378.507L29.1266 377.313L30.3998 377.735C30.5196 377.775 30.6489 377.71 30.6886 377.59C30.7283 377.47 30.6634 377.341 30.5437 377.301L29.54 376.968L30.3815 376.548C30.5262 376.476 30.5849 376.3 30.5127 376.155C30.4404 376.01 30.2645 375.952 30.1197 376.024L28.8084 376.679L28.0615 375.191C27.9889 375.046 27.8129 374.988 27.6683 375.06C27.5237 375.133 27.4654 375.309 27.5379 375.454L28.0503 376.474L27.0735 376.15C26.9537 376.111 26.8244 376.176 26.7847 376.295Z" fill="#8DE3CE"/>
<path fill-rule="evenodd" clip-rule="evenodd" d="M25.5225 308.953C25.4828 309.073 25.5477 309.202 25.6675 309.242L26.9103 309.654L25.538 310.339C25.3933 310.412 25.3346 310.588 25.4069 310.732C25.4791 310.877 25.655 310.936 25.7998 310.864L27.2848 310.122L27.9401 311.427C28.0127 311.572 28.1887 311.63 28.3333 311.558C28.4778 311.485 28.5362 311.309 28.4636 311.165L27.8642 309.97L29.1376 310.393C29.2574 310.432 29.3867 310.367 29.4264 310.248C29.4662 310.128 29.4013 309.999 29.2815 309.959L28.2777 309.626L29.1191 309.206C29.2638 309.134 29.3226 308.958 29.2503 308.813C29.178 308.668 29.0021 308.609 28.8574 308.682L27.5461 309.337L26.7991 307.849C26.7266 307.704 26.5505 307.646 26.406 307.718C26.2614 307.791 26.203 307.967 26.2756 308.111L26.7879 309.132L25.8113 308.808C25.6915 308.768 25.5622 308.833 25.5225 308.953Z" fill="#8DE3CE"/>
<path fill-rule="evenodd" clip-rule="evenodd" d="M6.91337 421.705C6.87365 421.824 6.93856 421.954 7.05834 421.993L8.30128 422.406L6.92891 423.091C6.78418 423.163 6.72545 423.339 6.79773 423.484C6.87 423.629 7.04592 423.687 7.19065 423.615L8.67553 422.873L9.33078 424.179C9.40335 424.323 9.57939 424.382 9.72397 424.309C9.86855 424.237 9.92692 424.061 9.85434 423.916L9.25485 422.722L10.5285 423.144C10.6483 423.184 10.7776 423.119 10.8173 422.999C10.857 422.879 10.7921 422.75 10.6724 422.71L9.66869 422.377L10.51 421.957C10.6547 421.885 10.7134 421.709 10.6412 421.564C10.5689 421.42 10.393 421.361 10.2482 421.433L8.93682 422.088L8.18984 420.6C8.11727 420.455 7.94123 420.397 7.79665 420.47C7.65208 420.542 7.59371 420.718 7.66628 420.863L8.17853 421.883L7.20217 421.56C7.08239 421.52 6.95309 421.585 6.91337 421.705Z" fill="#8DE3CE"/>
<path fill-rule="evenodd" clip-rule="evenodd" d="M48.156 365.568C48.1163 365.687 48.1812 365.817 48.301 365.856L49.5441 366.269L48.1717 366.954C48.027 367.026 47.9683 367.202 48.0406 367.347C48.1128 367.492 48.2887 367.55 48.4335 367.478L49.9182 366.736L50.5734 368.042C50.646 368.186 50.822 368.245 50.9666 368.172C51.1112 368.1 51.1696 367.924 51.097 367.779L50.4975 366.585L51.7712 367.007C51.891 367.047 52.0203 366.982 52.06 366.862C52.0997 366.742 52.0348 366.613 51.915 366.573L50.9115 366.24L51.7528 365.82C51.8975 365.748 51.9563 365.572 51.884 365.427C51.8117 365.283 51.6358 365.224 51.4911 365.296L50.1795 365.951L49.4325 364.463C49.3599 364.318 49.1839 364.26 49.0393 364.333C48.8947 364.405 48.8364 364.581 48.9089 364.726L49.4212 365.746L48.4448 365.423C48.3251 365.383 48.1958 365.448 48.156 365.568Z" fill="#8DE3CE"/>
<path fill-rule="evenodd" clip-rule="evenodd" d="M15.669 200.726C15.6293 200.846 15.6942 200.975 15.814 201.015L17.0571 201.427L15.6847 202.113C15.54 202.185 15.4812 202.361 15.5535 202.506C15.6258 202.65 15.8017 202.709 15.9464 202.637L17.4311 201.895L18.0864 203.201C18.1589 203.345 18.335 203.403 18.4796 203.331C18.6241 203.258 18.6825 203.082 18.6099 202.938L18.0104 201.743L19.2841 202.166C19.4039 202.205 19.5332 202.141 19.5729 202.021C19.6127 201.901 19.5478 201.772 19.428 201.732L18.4245 201.399L19.2658 200.979C19.4105 200.907 19.4692 200.731 19.3969 200.586C19.3247 200.441 19.1487 200.383 19.004 200.455L17.6924 201.11L16.9454 199.622C16.8729 199.477 16.6968 199.419 16.5522 199.491C16.4077 199.564 16.3493 199.74 16.4219 199.885L16.9341 200.905L15.9578 200.581C15.838 200.542 15.7087 200.606 15.669 200.726Z" fill="#8DE3CE"/>
<circle cx="11.0452" cy="380.929" r="1.51349" transform="rotate(-71.6554 11.0452 380.929)" stroke="#A7A7A7" stroke-width="2"/>
<circle cx="27.0767" cy="283.211" r="1.51349" transform="rotate(-71.6554 27.0767 283.211)" stroke="#A7A7A7" stroke-width="2"/>
<circle cx="65.7625" cy="346.592" r="1.51349" transform="rotate(-71.6554 65.7625 346.592)" stroke="#A7A7A7" stroke-width="2"/>
<circle cx="33.2755" cy="181.751" r="1.51349" transform="rotate(-71.6554 33.2755 181.751)" stroke="#A7A7A7" stroke-width="2"/>
<circle cx="22.5152" cy="414.583" r="1.51349" transform="rotate(-71.6554 22.5152 414.583)" stroke="#A7A7A7" stroke-width="2"/>
<circle cx="7.71003" cy="282.086" r="1.51349" transform="rotate(-71.6554 7.71003 282.086)" stroke="#A7A7A7" stroke-width="2"/>
</svg>
