<svg width="176" height="840" viewBox="0 0 176 840" fill="none" xmlns="http://www.w3.org/2000/svg">
<path fill-rule="evenodd" clip-rule="evenodd" d="M156.18 159.272C156.013 159.417 155.995 159.671 156.141 159.838L157.65 161.576L154.961 161.382C154.677 161.361 154.431 161.575 154.41 161.858C154.39 162.142 154.603 162.389 154.887 162.409L157.798 162.619L157.618 165.181C157.598 165.465 157.812 165.711 158.096 165.731C158.38 165.751 158.626 165.537 158.646 165.253L158.81 162.91L160.357 164.691C160.502 164.858 160.756 164.876 160.924 164.73C161.091 164.585 161.109 164.331 160.963 164.164L159.744 162.76L161.394 162.879C161.677 162.899 161.924 162.686 161.944 162.402C161.965 162.119 161.751 161.872 161.468 161.852L158.897 161.666L159.102 158.746C159.122 158.462 158.908 158.216 158.624 158.196C158.34 158.176 158.094 158.39 158.074 158.674L157.934 160.677L156.747 159.311C156.601 159.144 156.348 159.126 156.18 159.272Z" fill="#8DE3CE"/>
<path fill-rule="evenodd" clip-rule="evenodd" d="M157.848 289.82C157.681 289.966 157.663 290.22 157.809 290.387L159.319 292.125L156.629 291.931C156.345 291.91 156.099 292.124 156.078 292.407C156.058 292.691 156.271 292.938 156.555 292.958L159.466 293.168L159.286 295.73C159.266 296.014 159.48 296.26 159.764 296.28C160.047 296.3 160.294 296.086 160.313 295.802L160.478 293.459L162.025 295.239C162.171 295.407 162.424 295.425 162.592 295.279C162.759 295.134 162.777 294.88 162.632 294.712L161.412 293.309L163.062 293.428C163.345 293.448 163.592 293.235 163.612 292.951C163.633 292.668 163.419 292.421 163.136 292.401L160.565 292.215L160.77 289.294C160.79 289.011 160.576 288.765 160.292 288.745C160.008 288.725 159.762 288.939 159.742 289.222L159.602 291.226L158.415 289.86C158.27 289.693 158.016 289.675 157.848 289.82Z" fill="#8DE3CE"/>
<path fill-rule="evenodd" clip-rule="evenodd" d="M109.621 217.826C109.453 217.972 109.436 218.225 109.581 218.393L111.091 220.131L108.401 219.936C108.118 219.916 107.871 220.129 107.851 220.413C107.83 220.697 108.044 220.943 108.327 220.964L111.238 221.174L111.059 223.736C111.039 224.019 111.253 224.266 111.536 224.285C111.82 224.305 112.066 224.091 112.086 223.808L112.25 221.465L113.797 223.245C113.943 223.413 114.197 223.43 114.364 223.285C114.532 223.139 114.55 222.886 114.404 222.718L113.184 221.314L114.834 221.434C115.118 221.454 115.364 221.241 115.385 220.957C115.405 220.673 115.192 220.427 114.908 220.406L112.338 220.221L112.542 217.3C112.562 217.016 112.348 216.77 112.065 216.75C111.781 216.73 111.535 216.944 111.515 217.228L111.374 219.232L110.188 217.866C110.042 217.698 109.788 217.681 109.621 217.826Z" fill="#8DE3CE"/>
<path fill-rule="evenodd" clip-rule="evenodd" d="M162.292 222.089C162.125 222.235 162.107 222.488 162.252 222.656L163.762 224.394L161.073 224.199C160.789 224.179 160.542 224.392 160.522 224.676C160.501 224.96 160.715 225.206 160.998 225.227L163.909 225.437L163.73 227.999C163.71 228.282 163.924 228.529 164.207 228.548C164.491 228.568 164.737 228.354 164.757 228.071L164.921 225.727L166.469 227.508C166.614 227.676 166.868 227.693 167.035 227.548C167.203 227.402 167.221 227.148 167.075 226.981L165.855 225.577L167.505 225.696C167.789 225.717 168.035 225.504 168.056 225.22C168.076 224.936 167.863 224.69 167.579 224.669L165.009 224.484L165.213 221.563C165.233 221.279 165.019 221.033 164.736 221.013C164.452 220.993 164.206 221.207 164.186 221.491L164.045 223.494L162.859 222.129C162.713 221.961 162.46 221.944 162.292 222.089Z" fill="#8DE3CE"/>
<path fill-rule="evenodd" clip-rule="evenodd" d="M89.1199 266.511C88.9524 266.657 88.9346 266.91 89.0802 267.078L90.5901 268.815L87.9005 268.621C87.6168 268.601 87.3702 268.814 87.3497 269.098C87.3292 269.382 87.5426 269.628 87.8263 269.649L90.7372 269.859L90.5576 272.421C90.5377 272.704 90.7515 272.95 91.0353 272.97C91.319 272.99 91.5652 272.776 91.5851 272.493L91.7494 270.15L93.2965 271.93C93.442 272.098 93.6958 272.115 93.8633 271.97C94.0308 271.824 94.0485 271.57 93.903 271.403L92.6833 269.999L94.3329 270.118C94.6166 270.139 94.8632 269.926 94.8837 269.642C94.9042 269.358 94.6908 269.112 94.4071 269.091L91.8366 268.905L92.0414 265.985C92.0613 265.701 91.8474 265.455 91.5636 265.435C91.2799 265.415 91.0338 265.629 91.0139 265.913L90.8734 267.916L89.6867 266.551C89.5411 266.383 89.2874 266.366 89.1199 266.511Z" fill="#8DE3CE"/>
<path fill-rule="evenodd" clip-rule="evenodd" d="M156.452 337.872C156.284 338.018 156.266 338.271 156.412 338.439L157.922 340.177L155.232 339.982C154.949 339.962 154.702 340.175 154.682 340.459C154.661 340.743 154.874 340.989 155.158 341.01L158.069 341.22L157.889 343.782C157.869 344.065 158.083 344.311 158.367 344.331C158.651 344.351 158.897 344.137 158.917 343.854L159.081 341.51L160.628 343.291C160.774 343.458 161.028 343.476 161.195 343.331C161.363 343.185 161.38 342.931 161.235 342.764L160.015 341.36L161.665 341.479C161.948 341.5 162.195 341.287 162.216 341.003C162.236 340.719 162.023 340.473 161.739 340.452L159.168 340.267L159.373 337.346C159.393 337.062 159.179 336.816 158.895 336.796C158.612 336.776 158.365 336.99 158.346 337.274L158.205 339.277L157.018 337.912C156.873 337.744 156.619 337.726 156.452 337.872Z" fill="#8DE3CE"/>
<path fill-rule="evenodd" clip-rule="evenodd" d="M85.6763 388.727C85.5088 388.873 85.491 389.126 85.6365 389.294L87.1465 391.032L84.4568 390.837C84.1732 390.817 83.9266 391.03 83.9061 391.314C83.8856 391.598 84.099 391.844 84.3827 391.865L87.2936 392.075L87.1139 394.637C87.0941 394.92 87.3079 395.166 87.5917 395.186C87.8754 395.206 88.1216 394.992 88.1415 394.709L88.3057 392.366L89.8529 394.146C89.9984 394.314 90.2522 394.331 90.4197 394.186C90.5872 394.04 90.6049 393.787 90.4594 393.619L89.2397 392.215L90.8893 392.334C91.173 392.355 91.4196 392.142 91.4401 391.858C91.4606 391.574 91.2472 391.328 90.9635 391.307L88.393 391.122L88.5978 388.201C88.6177 387.917 88.4038 387.671 88.12 387.651C87.8363 387.631 87.5902 387.845 87.5703 388.129L87.4298 390.133L86.2431 388.767C86.0975 388.599 85.8438 388.582 85.6763 388.727Z" fill="#8DE3CE"/>
<path fill-rule="evenodd" clip-rule="evenodd" d="M68.054 347.622C67.8865 347.767 67.8687 348.021 68.0142 348.188L69.5242 349.926L66.8345 349.732C66.5508 349.711 66.3043 349.925 66.2838 350.208C66.2633 350.492 66.4767 350.739 66.7604 350.759L69.6713 350.969L69.4916 353.531C69.4717 353.815 69.6856 354.061 69.9694 354.081C70.2531 354.101 70.4993 353.887 70.5191 353.603L70.6834 351.26L72.2306 353.041C72.3761 353.208 72.6299 353.226 72.7973 353.08C72.9648 352.935 72.9826 352.681 72.8371 352.514L71.6174 351.11L73.267 351.229C73.5507 351.249 73.7973 351.036 73.8178 350.752C73.8382 350.469 73.6249 350.222 73.3412 350.202L70.7707 350.016L70.9755 347.096C70.9953 346.812 70.7815 346.566 70.4977 346.546C70.214 346.526 69.9678 346.74 69.9479 347.023L69.8075 349.027L68.6208 347.661C68.4752 347.494 68.2215 347.476 68.054 347.622Z" fill="#8DE3CE"/>
<circle cx="132.601" cy="190.938" r="3.41937" transform="rotate(-40.989 132.601 190.938)" stroke="#A7A7A7" stroke-width="2"/>
<circle cx="128.492" cy="330.764" r="3.41937" transform="rotate(-40.989 128.492 330.764)" stroke="#A7A7A7" stroke-width="2"/>
<circle cx="64.4648" cy="309.757" r="3.41937" transform="rotate(-40.989 64.4648 309.757)" stroke="#A7A7A7" stroke-width="2"/>
<circle cx="128.012" cy="272.635" r="3.41937" transform="rotate(-40.989 128.012 272.635)" stroke="#A7A7A7" stroke-width="2"/>
<circle cx="115.659" cy="391.948" r="3.41937" transform="rotate(-40.989 115.659 391.948)" stroke="#A7A7A7" stroke-width="2"/>
</svg>
