<svg width="26" height="25" viewBox="0 0 26 25" fill="none" xmlns="http://www.w3.org/2000/svg">
<g clip-path="url(#clip0_268_797)">
<path d="M0.909058 1.79063C0.909058 0.801563 1.73093 0 2.745 0H24.0731C25.0872 0 25.9091 0.801563 25.9091 1.79063V23.2094C25.9091 24.1984 25.0872 25 24.0731 25H2.745C1.73093 25 0.909058 24.1984 0.909058 23.2094V1.79063ZM8.63249 20.9281V9.63906H4.88093V20.9281H8.63249ZM6.7575 8.09688C8.06531 8.09688 8.87937 7.23125 8.87937 6.14688C8.85593 5.03906 8.06687 4.19688 6.7825 4.19688C5.49812 4.19688 4.65906 5.04063 4.65906 6.14688C4.65906 7.23125 5.47312 8.09688 6.7325 8.09688H6.7575ZM14.4262 20.9281V14.6234C14.4262 14.2859 14.4512 13.9484 14.5512 13.7078C14.8216 13.0344 15.4387 12.3359 16.4762 12.3359C17.8341 12.3359 18.3762 13.3703 18.3762 14.8891V20.9281H22.1278V14.4531C22.1278 10.9844 20.2778 9.37188 17.8091 9.37188C15.8184 9.37188 14.9262 10.4656 14.4262 11.2359V11.275H14.4012C14.4095 11.262 14.4179 11.2489 14.4262 11.2359V9.63906H10.6762C10.7231 10.6984 10.6762 20.9281 10.6762 20.9281H14.4262Z" fill="#707070"/>
</g>
<defs>
<clipPath id="clip0_268_797">
<rect width="25" height="25" fill="white" transform="translate(0.909058)"/>
</clipPath>
</defs>
</svg>
