<svg width="54" height="54" viewBox="0 0 54 54" fill="none" xmlns="http://www.w3.org/2000/svg">
<path d="M44.98 4.50452C44.6845 4.50435 44.3918 4.56243 44.1187 4.67544C43.8457 4.78846 43.5976 4.95419 43.3886 5.16315C43.1796 5.37212 43.0139 5.62022 42.9009 5.89328C42.7879 6.16634 42.7298 6.459 42.73 6.75452V8.18714C40.8323 10.54 38.434 12.4401 35.7094 13.7491C32.9848 15.0582 30.0027 15.7433 26.98 15.7545H13.48C11.6904 15.7565 9.97461 16.4683 8.70917 17.7337C7.44372 18.9992 6.73193 20.7149 6.72998 22.5045V27.0045C6.73193 28.7941 7.44372 30.5099 8.70917 31.7753C9.97461 33.0408 11.6904 33.7526 13.48 33.7545H14.5685L9.16237 46.3689C9.01545 46.7111 8.95581 47.0843 8.98878 47.4552C9.02176 47.8261 9.14633 48.183 9.3513 48.4938C9.55628 48.8047 9.83524 49.0598 10.1631 49.2362C10.4911 49.4126 10.8576 49.5048 11.23 49.5045H20.23C20.6704 49.5048 21.1012 49.3756 21.4688 49.133C21.8365 48.8904 22.1247 48.5451 22.2976 48.14L28.4261 33.84C31.195 34.0433 33.8929 34.8121 36.3531 36.0989C38.8133 37.3856 40.9836 39.1631 42.73 41.3214V42.7545C42.73 43.3513 42.967 43.9235 43.389 44.3455C43.8109 44.7675 44.3832 45.0045 44.98 45.0045C45.5767 45.0045 46.149 44.7675 46.571 44.3455C46.9929 43.9235 47.23 43.3513 47.23 42.7545V6.75452C47.2302 6.45899 47.1721 6.16634 47.0591 5.89328C46.946 5.62022 46.7803 5.37211 46.5714 5.16314C46.3624 4.95418 46.1143 4.78845 45.8412 4.67544C45.5682 4.56243 45.2755 4.50435 44.98 4.50452ZM13.48 29.2545C12.8834 29.2541 12.3113 29.0169 11.8894 28.5951C11.4676 28.1732 11.2304 27.6011 11.23 27.0045V22.5045C11.2304 21.9079 11.4676 21.3358 11.8894 20.914C12.3113 20.4921 12.8834 20.2549 13.48 20.2545H15.73V29.2545H13.48ZM18.7468 45.0045H14.6423L19.4631 33.7545H23.5676L18.7468 45.0045ZM42.73 34.9286C38.2936 31.2737 32.728 29.2686 26.98 29.2544H20.23V20.2544H26.98C32.7281 20.2397 38.2936 18.2343 42.73 14.5791V34.9286Z" fill="#2A6000"/>
</svg>
