<svg width="169" height="877" viewBox="0 0 169 877" fill="none" xmlns="http://www.w3.org/2000/svg">
<path fill-rule="evenodd" clip-rule="evenodd" d="M123.075 274.817C122.943 274.946 122.928 275.169 123.041 275.315L124.234 276.858L122.114 276.686C121.891 276.668 121.696 276.857 121.68 277.109C121.664 277.36 121.832 277.578 122.056 277.596L124.35 277.783L124.208 280.051C124.192 280.303 124.361 280.521 124.585 280.538C124.808 280.556 125.002 280.367 125.018 280.115L125.147 278.039L126.37 279.621C126.483 279.767 126.681 279.781 126.813 279.652C126.945 279.523 126.961 279.3 126.848 279.154L125.884 277.907L127.183 278.012C127.407 278.031 127.601 277.842 127.617 277.59C127.633 277.339 127.465 277.121 127.242 277.103L125.216 276.938L125.377 274.351C125.393 274.1 125.225 273.882 125.001 273.864C124.777 273.847 124.583 274.036 124.568 274.287L124.457 276.061L123.519 274.848C123.406 274.702 123.207 274.688 123.075 274.817Z" fill="#8DE3CE"/>
<path fill-rule="evenodd" clip-rule="evenodd" d="M124.39 390.447C124.258 390.576 124.242 390.799 124.355 390.945L125.549 392.489L123.429 392.317C123.205 392.299 123.011 392.488 122.995 392.739C122.979 392.99 123.147 393.209 123.37 393.227L125.664 393.413L125.523 395.682C125.507 395.933 125.675 396.151 125.899 396.169C126.123 396.187 126.317 395.997 126.332 395.746L126.462 393.67L127.684 395.252C127.797 395.397 127.996 395.411 128.128 395.282C128.26 395.153 128.275 394.931 128.162 394.785L127.198 393.538L128.498 393.643C128.721 393.661 128.916 393.472 128.932 393.221C128.948 392.97 128.78 392.751 128.556 392.733L126.531 392.569L126.692 389.982C126.708 389.731 126.539 389.512 126.315 389.495C126.092 389.477 125.898 389.667 125.882 389.918L125.772 391.692L124.833 390.478C124.72 390.332 124.522 390.319 124.39 390.447Z" fill="#8DE3CE"/>
<path fill-rule="evenodd" clip-rule="evenodd" d="M86.385 326.68C86.253 326.809 86.2375 327.032 86.3503 327.178L87.5439 328.722L85.4239 328.55C85.2003 328.532 85.006 328.721 84.9899 328.972C84.9738 329.223 85.1419 329.442 85.3654 329.46L87.6593 329.646L87.5178 331.915C87.5021 332.166 87.6706 332.384 87.8942 332.402C88.1178 332.419 88.3118 332.23 88.3275 331.979L88.457 329.903L89.6796 331.485C89.7925 331.63 89.9909 331.644 90.1229 331.515C90.2549 331.386 90.2704 331.164 90.1576 331.018L89.1934 329.77L90.4929 329.876C90.7165 329.894 90.9108 329.705 90.9269 329.454C90.9431 329.202 90.7749 328.984 90.5514 328.966L88.5257 328.802L88.6871 326.215C88.7027 325.963 88.5342 325.745 88.3106 325.728C88.087 325.71 87.893 325.9 87.8774 326.151L87.7667 327.925L86.8283 326.711C86.7155 326.565 86.517 326.552 86.385 326.68Z" fill="#8DE3CE"/>
<path fill-rule="evenodd" clip-rule="evenodd" d="M127.891 330.456C127.759 330.585 127.744 330.808 127.857 330.954L129.05 332.497L126.93 332.325C126.707 332.307 126.512 332.496 126.496 332.747C126.48 332.999 126.648 333.217 126.872 333.235L129.166 333.421L129.024 335.69C129.009 335.941 129.177 336.159 129.401 336.177C129.624 336.195 129.818 336.005 129.834 335.754L129.963 333.678L131.186 335.26C131.299 335.406 131.497 335.42 131.629 335.291C131.761 335.162 131.777 334.939 131.664 334.793L130.7 333.546L131.999 333.651C132.223 333.669 132.417 333.48 132.433 333.229C132.45 332.978 132.281 332.759 132.058 332.741L130.032 332.577L130.194 329.99C130.209 329.739 130.041 329.521 129.817 329.503C129.593 329.485 129.399 329.675 129.384 329.926L129.273 331.701L128.335 330.487C128.222 330.341 128.023 330.327 127.891 330.456Z" fill="#8DE3CE"/>
<path fill-rule="evenodd" clip-rule="evenodd" d="M70.2295 369.802C70.0975 369.931 70.082 370.153 70.1949 370.299L71.3885 371.843L69.2684 371.671C69.0449 371.653 68.8506 371.842 68.8344 372.093C68.8183 372.345 68.9864 372.563 69.21 372.581L71.5038 372.767L71.3623 375.036C71.3466 375.288 71.5152 375.506 71.7388 375.523C71.9624 375.541 72.1563 375.351 72.172 375.1L72.3015 373.024L73.5242 374.606C73.637 374.752 73.8355 374.766 73.9675 374.637C74.0994 374.508 74.115 374.285 74.0021 374.139L73.038 372.892L74.3375 372.997C74.561 373.015 74.7553 372.826 74.7715 372.575C74.7876 372.324 74.6195 372.106 74.3959 372.087L72.3702 371.923L72.5316 369.336C72.5473 369.085 72.3787 368.867 72.1551 368.849C71.9315 368.832 71.7376 369.021 71.7219 369.272L71.6112 371.046L70.6728 369.833C70.56 369.687 70.3615 369.673 70.2295 369.802Z" fill="#8DE3CE"/>
<path fill-rule="evenodd" clip-rule="evenodd" d="M123.289 433.008C123.157 433.137 123.142 433.36 123.254 433.506L124.448 435.049L122.328 434.877C122.104 434.859 121.91 435.048 121.894 435.3C121.878 435.551 122.046 435.769 122.269 435.787L124.563 435.974L124.422 438.242C124.406 438.494 124.575 438.712 124.798 438.729C125.022 438.747 125.216 438.557 125.232 438.306L125.361 436.231L126.584 437.812C126.697 437.958 126.895 437.972 127.027 437.843C127.159 437.714 127.174 437.491 127.062 437.345L126.097 436.098L127.397 436.203C127.621 436.222 127.815 436.033 127.831 435.781C127.847 435.53 127.679 435.312 127.455 435.293L125.43 435.129L125.591 432.542C125.607 432.291 125.438 432.073 125.215 432.055C124.991 432.038 124.797 432.227 124.781 432.478L124.671 434.253L123.732 433.039C123.62 432.893 123.421 432.879 123.289 433.008Z" fill="#8DE3CE"/>
<path fill-rule="evenodd" clip-rule="evenodd" d="M169.375 341.797C169.243 341.926 169.228 342.149 169.34 342.295L170.534 343.839L168.414 343.667C168.19 343.648 167.996 343.837 167.98 344.089C167.964 344.34 168.132 344.558 168.355 344.577L170.649 344.763L170.508 347.032C170.492 347.283 170.661 347.501 170.884 347.518C171.108 347.536 171.302 347.347 171.317 347.095L171.447 345.02L172.67 346.601C172.782 346.747 172.981 346.761 173.113 346.632C173.245 346.503 173.26 346.28 173.148 346.134L172.183 344.887L173.483 344.993C173.706 345.011 173.901 344.822 173.917 344.57C173.933 344.319 173.765 344.101 173.541 344.083L171.516 343.918L171.677 341.331C171.693 341.08 171.524 340.862 171.301 340.844C171.077 340.827 170.883 341.016 170.867 341.268L170.757 343.042L169.818 341.828C169.705 341.682 169.507 341.668 169.375 341.797Z" fill="#8DE3CE"/>
<path fill-rule="evenodd" clip-rule="evenodd" d="M67.516 478.052C67.384 478.181 67.3685 478.404 67.4813 478.55L68.6748 480.094L66.5548 479.922C66.3313 479.904 66.137 480.093 66.1208 480.344C66.1047 480.595 66.2728 480.814 66.4964 480.832L68.7903 481.018L68.6487 483.287C68.633 483.538 68.8016 483.756 69.0252 483.774C69.2488 483.791 69.4428 483.602 69.4584 483.35L69.5879 481.275L70.8106 482.856C70.9234 483.002 71.1219 483.016 71.2539 482.887C71.3859 482.758 71.4014 482.536 71.2886 482.39L70.3243 481.142L71.6239 481.248C71.8474 481.266 72.0417 481.077 72.0579 480.826C72.074 480.574 71.9059 480.356 71.6823 480.338L69.6566 480.173L69.818 477.586C69.8337 477.335 69.6651 477.117 69.4415 477.099C69.218 477.082 69.024 477.271 69.0083 477.523L68.8976 479.297L67.9593 478.083C67.8464 477.937 67.6479 477.923 67.516 478.052Z" fill="#8DE3CE"/>
<path fill-rule="evenodd" clip-rule="evenodd" d="M53.629 441.644C53.497 441.773 53.4815 441.995 53.5944 442.141L54.7878 443.685L52.6679 443.513C52.4444 443.495 52.2501 443.684 52.2339 443.935C52.2178 444.186 52.3859 444.405 52.6095 444.423L54.9033 444.609L54.7618 446.878C54.7461 447.129 54.9147 447.347 55.1383 447.365C55.3619 447.382 55.5558 447.193 55.5715 446.942L55.701 444.866L56.9237 446.448C57.0365 446.594 57.235 446.607 57.367 446.479C57.4989 446.35 57.5145 446.127 57.4016 445.981L56.4373 444.734L57.737 444.839C57.9605 444.857 58.1548 444.668 58.171 444.417C58.1871 444.166 58.019 443.947 57.7954 443.929L55.7697 443.765L55.9311 441.178C55.9468 440.926 55.7782 440.708 55.5546 440.691C55.331 440.673 55.1371 440.863 55.1214 441.114L55.0107 442.888L54.0723 441.674C53.9595 441.529 53.761 441.515 53.629 441.644Z" fill="#8DE3CE"/>
<path fill-rule="evenodd" clip-rule="evenodd" d="M156.341 435.613C156.209 435.742 156.193 435.965 156.306 436.111L157.499 437.655L155.38 437.483C155.156 437.465 154.962 437.654 154.946 437.905C154.929 438.156 155.098 438.374 155.321 438.393L157.615 438.579L157.473 440.848C157.458 441.099 157.626 441.317 157.85 441.334C158.074 441.352 158.268 441.163 158.283 440.911L158.413 438.836L159.635 440.417C159.748 440.563 159.947 440.577 160.079 440.448C160.211 440.319 160.226 440.097 160.113 439.951L159.149 438.703L160.449 438.809C160.672 438.827 160.867 438.638 160.883 438.387C160.899 438.135 160.731 437.917 160.507 437.899L158.481 437.734L158.643 435.147C158.658 434.896 158.49 434.678 158.266 434.66C158.043 434.643 157.849 434.832 157.833 435.084L157.722 436.858L156.784 435.644C156.671 435.498 156.473 435.484 156.341 435.613Z" fill="#8DE3CE"/>
<path d="M106.407 300.996C107.341 302.203 107.213 304.007 106.167 305.029C105.121 306.05 103.514 305.941 102.581 304.734C101.647 303.527 101.776 301.723 102.821 300.701C103.867 299.68 105.474 299.789 106.407 300.996Z" stroke="#A7A7A7" stroke-width="2"/>
<path d="M103.17 424.844C104.103 426.051 103.975 427.855 102.929 428.877C101.883 429.898 100.276 429.789 99.3428 428.582C98.4096 427.375 98.5377 425.571 99.5835 424.55C100.629 423.528 102.236 423.637 103.17 424.844Z" stroke="#A7A7A7" stroke-width="2"/>
<path d="M52.7137 406.238C53.6469 407.445 53.5188 409.249 52.473 410.27C51.4271 411.292 49.8201 411.183 48.8869 409.975C47.9537 408.768 48.0818 406.965 49.1277 405.943C50.1735 404.922 51.7805 405.031 52.7137 406.238Z" stroke="#A7A7A7" stroke-width="2"/>
<path d="M172.351 553.391C173.284 554.598 173.156 556.402 172.11 557.423C171.064 558.445 169.457 558.336 168.524 557.129C167.591 555.921 167.719 554.118 168.765 553.096C169.81 552.075 171.417 552.184 172.351 553.391Z" stroke="#A7A7A7" stroke-width="2"/>
<path d="M102.791 373.357C103.724 374.564 103.596 376.368 102.55 377.389C101.504 378.411 99.8973 378.302 98.9641 377.095C98.0309 375.888 98.159 374.084 99.2048 373.062C100.251 372.041 101.858 372.15 102.791 373.357Z" stroke="#A7A7A7" stroke-width="2"/>
<path d="M93.0562 479.036C93.9894 480.243 93.8613 482.047 92.8155 483.069C91.7696 484.09 90.1626 483.981 89.2294 482.774C88.2962 481.567 88.4243 479.763 89.4702 478.741C90.516 477.72 92.123 477.829 93.0562 479.036Z" stroke="#A7A7A7" stroke-width="2"/>
<path d="M169.047 289.789C169.98 290.996 169.852 292.8 168.806 293.822C167.76 294.843 166.153 294.734 165.22 293.527C164.287 292.32 164.415 290.516 165.46 289.495C166.506 288.473 168.113 288.582 169.047 289.789Z" stroke="#A7A7A7" stroke-width="2"/>
</svg>
