<svg width="54" height="54" viewBox="0 0 54 54" fill="none" xmlns="http://www.w3.org/2000/svg">
<path d="M21.8474 14.1525C21.6382 13.9416 21.3893 13.7742 21.1152 13.66C20.841 13.5458 20.5469 13.4869 20.2499 13.4869C19.9528 13.4869 19.6587 13.5458 19.3846 13.66C19.1104 13.7742 18.8615 13.9416 18.6524 14.1525L7.40236 25.4025C7.19147 25.6117 7.02409 25.8605 6.90986 26.1347C6.79563 26.4089 6.73682 26.703 6.73682 27C6.73682 27.297 6.79563 27.5911 6.90986 27.8653C7.02409 28.1395 7.19147 28.3883 7.40236 28.5975L18.6524 39.8475C18.8615 40.0584 19.1104 40.2258 19.3846 40.34C19.6587 40.4542 19.9528 40.513 20.2499 40.513C20.5469 40.513 20.841 40.4542 21.1152 40.34C21.3893 40.2258 21.6382 40.0584 21.8474 39.8475C22.0583 39.6383 22.2256 39.3895 22.3399 39.1153C22.4541 38.8411 22.5129 38.547 22.5129 38.25C22.5129 37.953 22.4541 37.6589 22.3399 37.3847C22.2256 37.1105 22.0583 36.8617 21.8474 36.6525L12.1724 27L21.8474 17.3475C22.0583 17.1383 22.2256 16.8895 22.3399 16.6153C22.4541 16.3411 22.5129 16.047 22.5129 15.75C22.5129 15.453 22.4541 15.1589 22.3399 14.8847C22.2256 14.6105 22.0583 14.3617 21.8474 14.1525ZM46.5974 25.4025L35.3474 14.1525C35.1376 13.9427 34.8885 13.7763 34.6144 13.6628C34.3403 13.5492 34.0465 13.4908 33.7499 13.4908C33.1507 13.4908 32.576 13.7288 32.1524 14.1525C31.9426 14.3623 31.7762 14.6113 31.6626 14.8854C31.5491 15.1595 31.4907 15.4533 31.4907 15.75C31.4907 16.3492 31.7287 16.9238 32.1524 17.3475L41.8274 27L32.1524 36.6525C31.9415 36.8617 31.7741 37.1105 31.6599 37.3847C31.5456 37.6589 31.4868 37.953 31.4868 38.25C31.4868 38.547 31.5456 38.8411 31.6599 39.1153C31.7741 39.3895 31.9415 39.6383 32.1524 39.8475C32.3615 40.0584 32.6104 40.2258 32.8846 40.34C33.1587 40.4542 33.4528 40.513 33.7499 40.513C34.0469 40.513 34.341 40.4542 34.6152 40.34C34.8893 40.2258 35.1382 40.0584 35.3474 39.8475L46.5974 28.5975C46.8082 28.3883 46.9756 28.1395 47.0899 27.8653C47.2041 27.5911 47.2629 27.297 47.2629 27C47.2629 26.703 47.2041 26.4089 47.0899 26.1347C46.9756 25.8605 46.8082 25.6117 46.5974 25.4025Z" fill="#2A6000"/>
</svg>
