<svg width="25" height="24" viewBox="0 0 25 24" fill="none" xmlns="http://www.w3.org/2000/svg">
<path d="M6.57526 2.90183C7.18701 2.70449 8.58812 2.59266 9.29854 2.64529C9.40906 2.56635 9.01569 1.99407 8.80519 1.71779C7.22647 -0.0187917 5.1873 -0.110883 4.36506 0.0601439C2.21801 0.439035 1.10239 2.11247 0.812957 2.90183C-0.272409 5.01336 1.26684 7.24329 1.48391 7.5985C1.70098 7.95371 2.29165 8.45166 2.47061 8.50626C2.51007 8.50626 3.37837 8.40759 3.87171 8.21025C4.36506 8.01291 4.81753 7.46036 5.03602 6.84861C5.13469 6.57234 5.21362 5.3291 5.25309 4.52001C5.29256 3.71092 5.88751 3.12369 6.57526 2.90183Z" fill="#2A6000"/>
<path d="M9.96975 23.9378H0.161988H0.0435845C0.0106946 22.0696 -0.0353512 17.54 0.0435845 14.3668C0.12252 11.1936 2.60242 10.2819 3.8325 10.2227C4.77973 10.1832 7.04123 10.1556 8.50944 10.3608C9.97764 10.566 10.9499 11.8014 11.2525 12.3934L13.9165 17.0506L14.844 17.0901C14.9493 17.2677 15.2348 17.765 15.5347 18.3333C15.8347 18.9017 16.1728 19.0569 16.3043 19.0635L16.2254 17.0901H14.9032C14.1665 15.8863 12.5983 13.2617 12.2194 12.3934C11.4961 10.7358 10.7591 10.499 10.2263 10.1043C9.80004 9.78853 8.68046 9.48594 8.17396 9.37412C9.43693 8.99523 10.2789 6.94027 10.542 5.96015H23.9414V5.17079C19.442 5.17079 10.4789 5.155 10.621 5.09186C10.7631 5.02871 10.6802 3.9736 10.621 3.45394C14.7914 3.39474 23.2704 3.31186 23.823 3.45394C24.3755 3.59602 24.7241 4.21041 24.8294 4.49984C24.8557 8.14404 24.8925 15.5706 24.8294 16.1231C24.7662 16.6757 24.2374 16.9848 23.9808 17.0703C23.7243 17.1559 17.1134 17.169 17.1134 17.169V20.0896H19.7183V23.9378C16.5017 23.9378 14.8638 23.9378 14.1928 23.6812C12.9862 23.2199 11.9312 21.3723 10.9959 20.0896C10.4434 19.3319 10.0816 19.7739 9.96975 20.0896C9.85792 20.4054 9.96975 23.9378 9.96975 23.9378Z" fill="#2A6000"/>
<path d="M6.08248 4.53929C6.2548 4.08591 6.53637 3.79247 6.95078 3.65127C7.8388 3.34868 9.73841 3.37499 9.79247 3.65127C9.93455 4.37747 9.85167 5.32207 9.79247 5.70359C9.46094 7.1718 8.31242 8.28874 7.7796 8.66368C6.59557 9.45304 5.35233 9.45304 4.48404 9.39384C3.7894 9.34648 3.69139 9.26886 3.73086 9.21624C3.82295 9.15703 4.14543 9.08753 4.48075 8.86102C4.97738 8.52555 5.35732 8.06664 5.47073 7.87433C5.92461 7.10471 5.8989 6.74949 5.91863 6.67056C5.93837 6.59162 6.00483 5.9983 6.03704 5.56546C6.0668 5.16543 5.94548 4.89977 6.08248 4.53929Z" fill="#2A6000"/>
<rect x="15.9377" y="7.23242" width="0.631023" height="3.17577" rx="0.315511" transform="rotate(14.8879 15.9377 7.23242)" fill="white"/>
<rect x="18.0186" y="11.0591" width="0.631023" height="3.39989" rx="0.315511" transform="rotate(90.745 18.0186 11.0591)" fill="white"/>
<path fill-rule="evenodd" clip-rule="evenodd" d="M13.5032 8.58055C13.4729 8.60282 13.4478 8.62947 13.428 8.65899C13.4033 8.68134 13.3818 8.708 13.3646 8.73865C13.2794 8.89063 13.3335 9.08294 13.4855 9.16816L14.4518 9.71006C14.6038 9.79529 14.7961 9.74117 14.8813 9.58919C14.9666 9.4372 14.9124 9.2449 14.7605 9.15967L14.2046 8.84799L14.7696 8.4325C14.91 8.32926 14.9401 8.13177 14.8369 7.9914C14.7336 7.85102 14.5361 7.82091 14.3958 7.92415L13.5032 8.58055ZM18.1835 9.0337C18.2142 9.01111 18.2397 8.984 18.2596 8.95397C18.2839 8.93178 18.3052 8.90538 18.3221 8.87509C18.4074 8.72311 18.3533 8.53081 18.2013 8.44558L17.2349 7.90368C17.0829 7.81845 16.8906 7.87257 16.8054 8.02455C16.7202 8.17654 16.7743 8.36884 16.9263 8.45407L17.4825 8.76597L16.9171 9.18175C16.7768 9.28498 16.7466 9.48247 16.8499 9.62285C16.9531 9.76323 17.1506 9.79333 17.291 9.6901L18.1835 9.0337Z" fill="white"/>
<rect x="21.7446" y="11.0015" width="0.631023" height="3.11551" rx="0.315511" transform="rotate(90.745 21.7446 11.0015)" fill="white"/>
<rect x="19.5679" y="12.3047" width="0.631023" height="4.06584" rx="0.315511" transform="rotate(90.745 19.5679 12.3047)" fill="white"/>
<path d="M20.5667 20.0308C20.5667 20.0308 22.4372 19.9868 22.54 20.0308C23.43 20.4115 24.0493 21.0362 24.0398 22.0042C24.0305 22.9599 23.0268 23.799 22.54 23.9381C22.0533 24.0772 20.5667 23.9381 20.5667 23.9381V20.0308Z" fill="#2A6000"/>
</svg>
