<svg width="36" height="36" viewBox="0 0 36 36" fill="none" xmlns="http://www.w3.org/2000/svg">
<path d="M32.8801 17.4C29.8501 10.365 24.1501 6 18.0001 6C11.8501 6 6.1501 10.365 3.1201 17.4C3.03751 17.5892 2.99487 17.7935 2.99487 18C2.99487 18.2065 3.03751 18.4108 3.1201 18.6C6.1501 25.635 11.8501 30 18.0001 30C24.1501 30 29.8501 25.635 32.8801 18.6C32.9627 18.4108 33.0053 18.2065 33.0053 18C33.0053 17.7935 32.9627 17.5892 32.8801 17.4ZM18.0001 27C13.2451 27 8.7451 23.565 6.1501 18C8.7451 12.435 13.2451 9 18.0001 9C22.7551 9 27.2551 12.435 29.8501 18C27.2551 23.565 22.7551 27 18.0001 27ZM18.0001 12C16.8134 12 15.6534 12.3519 14.6667 13.0112C13.68 13.6705 12.9109 14.6075 12.4568 15.7039C12.0027 16.8003 11.8839 18.0067 12.1154 19.1705C12.3469 20.3344 12.9183 21.4035 13.7575 22.2426C14.5966 23.0818 15.6657 23.6532 16.8296 23.8847C17.9934 24.1162 19.1998 23.9974 20.2962 23.5433C21.3926 23.0892 22.3296 22.3201 22.9889 21.3334C23.6482 20.3467 24.0001 19.1867 24.0001 18C24.0001 16.4087 23.368 14.8826 22.2427 13.7574C21.1175 12.6321 19.5914 12 18.0001 12ZM18.0001 21C17.4068 21 16.8267 20.8241 16.3334 20.4944C15.84 20.1648 15.4555 19.6962 15.2285 19.148C15.0014 18.5999 14.942 17.9967 15.0577 17.4147C15.1735 16.8328 15.4592 16.2982 15.8788 15.8787C16.2983 15.4591 16.8329 15.1734 17.4148 15.0576C17.9968 14.9419 18.6 15.0013 19.1481 15.2284C19.6963 15.4554 20.1649 15.8399 20.4945 16.3333C20.8242 16.8266 21.0001 17.4067 21.0001 18C21.0001 18.7956 20.684 19.5587 20.1214 20.1213C19.5588 20.6839 18.7957 21 18.0001 21Z" fill="white"/>
</svg>
