<svg width="633" height="764" viewBox="0 0 633 764" fill="none" xmlns="http://www.w3.org/2000/svg">
<g clip-path="url(#clip0_247_841)">
<path d="M0 0H603C619.569 0 633 13.4315 633 30V734C633 750.569 619.569 764 603 764H0V0Z" fill="url(#paint0_linear_247_841)"/>
<path d="M792.217 189.426C538.413 53.7995 38.3011 -159.229 68.2904 73.6695C105.777 364.792 -265.359 606.626 444.828 850.145C1155.02 1093.66 114.294 705.49 135.664 396.471C157.034 87.4519 257.605 -65.2309 754.249 221.923C1250.89 509.078 520.735 129.878 405.145 154.472C289.554 179.066 154.61 560.153 504.362 746.522C854.113 932.89 409.493 612.957 401.728 450.531C393.963 288.105 514.49 204.813 768.846 314.926C1023.2 425.039 509.117 263.303 496.627 396.312C484.136 529.321 612.729 669.648 652.277 735" stroke="white" stroke-opacity="0.1" stroke-width="6"/>
</g>
<defs>
<linearGradient id="paint0_linear_247_841" x1="317" y1="-144" x2="391.713" y2="1337.16" gradientUnits="userSpaceOnUse">
<stop offset="0.0985127" stop-color="#003166"/>
<stop offset="1" stop-color="#67C800"/>
</linearGradient>
<clipPath id="clip0_247_841">
<rect width="633" height="764" fill="white"/>
</clipPath>
</defs>
</svg>
