<svg width="388" height="1049" viewBox="0 0 388 1049" fill="none" xmlns="http://www.w3.org/2000/svg">
<path fill-rule="evenodd" clip-rule="evenodd" d="M109.845 515.621C109.813 515.851 109.946 516.077 110.141 516.124L112.196 516.626L110.219 518.188C110.01 518.352 109.962 518.691 110.112 518.944C110.261 519.197 110.552 519.268 110.76 519.104L112.9 517.414L114.254 519.694C114.404 519.947 114.695 520.018 114.903 519.852C115.111 519.687 115.158 519.348 115.008 519.096L113.769 517.009L115.874 517.523C116.069 517.57 116.254 517.422 116.286 517.192C116.318 516.961 116.186 516.736 115.99 516.688L114.331 516.283L115.543 515.326C115.752 515.161 115.799 514.822 115.65 514.569C115.5 514.316 115.21 514.245 115.001 514.41L113.112 515.902L111.568 513.302C111.418 513.049 111.127 512.978 110.919 513.144C110.711 513.309 110.664 513.648 110.814 513.9L111.873 515.684L110.257 515.29C110.062 515.242 109.878 515.39 109.845 515.621Z" fill="#8DE3CE"/>
<path fill-rule="evenodd" clip-rule="evenodd" d="M17.5334 216.921C17.5013 217.151 17.6337 217.377 17.8291 217.424L19.8841 217.926L17.9065 219.488C17.698 219.652 17.6502 219.991 17.7997 220.244C17.9493 220.497 18.2396 220.569 18.4482 220.404L20.5879 218.714L21.9422 220.994C22.0922 221.247 22.3826 221.318 22.5908 221.153C22.7991 220.987 22.8463 220.649 22.6963 220.396L21.4572 218.309L23.562 218.823C23.7574 218.87 23.9419 218.722 23.974 218.492C24.0061 218.261 23.8737 218.036 23.6783 217.988L22.019 217.583L23.2311 216.626C23.4397 216.461 23.4875 216.123 23.3379 215.87C23.1883 215.617 22.898 215.545 22.6894 215.71L20.7999 217.202L19.2557 214.602C19.1057 214.349 18.8152 214.279 18.607 214.444C18.3988 214.609 18.3516 214.948 18.5016 215.2L19.5606 216.984L17.9454 216.59C17.75 216.542 17.5655 216.69 17.5334 216.921Z" fill="#8DE3CE"/>
<path fill-rule="evenodd" clip-rule="evenodd" d="M186.37 624.908C186.338 625.139 186.471 625.364 186.666 625.412L188.721 625.913L186.743 627.475C186.535 627.64 186.487 627.978 186.637 628.231C186.786 628.484 187.077 628.556 187.285 628.391L189.425 626.701L190.779 628.982C190.929 629.234 191.219 629.305 191.428 629.14C191.636 628.975 191.683 628.636 191.533 628.383L190.294 626.297L192.399 626.81C192.594 626.858 192.779 626.71 192.811 626.479C192.843 626.249 192.711 626.023 192.515 625.975L190.856 625.571L192.068 624.613C192.277 624.448 192.324 624.11 192.175 623.857C192.025 623.604 191.735 623.532 191.526 623.697L189.637 625.19L188.093 622.589C187.943 622.337 187.652 622.266 187.444 622.431C187.236 622.596 187.188 622.935 187.338 623.188L188.397 624.971L186.782 624.577C186.587 624.529 186.402 624.678 186.37 624.908Z" fill="#8DE3CE"/>
<path fill-rule="evenodd" clip-rule="evenodd" d="M94.0589 326.211C94.0268 326.441 94.1591 326.667 94.3546 326.714L96.4089 327.215L94.4313 328.777C94.2228 328.942 94.175 329.281 94.3246 329.534C94.4742 329.787 94.7645 329.858 94.973 329.693L97.1127 328.003L98.467 330.284C98.617 330.536 98.9074 330.607 99.1157 330.442C99.3239 330.277 99.3711 329.938 99.2211 329.685L97.9821 327.599L100.087 328.112C100.283 328.16 100.467 328.012 100.499 327.781C100.532 327.551 100.399 327.325 100.204 327.278L98.5438 326.873L99.756 325.915C99.9645 325.751 100.012 325.412 99.8627 325.159C99.7131 324.906 99.4228 324.835 99.2143 324.999L97.3247 326.492L95.7805 323.892C95.6305 323.639 95.3401 323.568 95.1318 323.733C94.9236 323.899 94.8764 324.237 95.0264 324.49L96.0854 326.273L94.4709 325.879C94.2754 325.832 94.091 325.98 94.0589 326.211Z" fill="#8DE3CE"/>
<path fill-rule="evenodd" clip-rule="evenodd" d="M155.851 466.889C155.819 467.12 155.951 467.345 156.147 467.393L158.202 467.894L156.224 469.456C156.016 469.621 155.968 469.96 156.117 470.213C156.267 470.466 156.557 470.537 156.766 470.372L158.906 468.682L160.26 470.963C160.41 471.216 160.7 471.286 160.908 471.121C161.117 470.956 161.164 470.617 161.014 470.365L159.775 468.278L161.88 468.791C162.075 468.839 162.259 468.691 162.292 468.46C162.324 468.23 162.191 468.004 161.996 467.957L160.337 467.552L161.549 466.595C161.757 466.43 161.805 466.091 161.656 465.838C161.506 465.585 161.216 465.514 161.007 465.678L159.118 467.171L157.573 464.571C157.423 464.318 157.133 464.247 156.925 464.412C156.716 464.578 156.669 464.916 156.819 465.169L157.878 466.952L156.263 466.558C156.068 466.511 155.883 466.659 155.851 466.889Z" fill="#8DE3CE"/>
<path fill-rule="evenodd" clip-rule="evenodd" d="M111.365 594.994C111.333 595.225 111.465 595.45 111.661 595.498L113.714 595.999L111.738 597.56C111.529 597.724 111.482 598.063 111.631 598.316C111.781 598.569 112.071 598.64 112.28 598.476L114.419 596.786L115.774 599.066C115.924 599.319 116.214 599.39 116.422 599.224C116.631 599.059 116.678 598.72 116.528 598.468L115.29 596.383L117.394 596.896C117.589 596.944 117.773 596.796 117.806 596.565C117.838 596.335 117.705 596.109 117.51 596.061L115.849 595.656L117.063 594.698C117.271 594.533 117.319 594.194 117.169 593.941C117.02 593.689 116.729 593.617 116.521 593.782L114.631 595.274L113.087 592.674C112.937 592.421 112.647 592.35 112.439 592.516C112.23 592.681 112.183 593.02 112.333 593.272L113.393 595.057L111.777 594.663C111.582 594.615 111.397 594.764 111.365 594.994Z" fill="#8DE3CE"/>
<path fill-rule="evenodd" clip-rule="evenodd" d="M19.0528 296.294C19.0207 296.524 19.1531 296.75 19.3485 296.798L21.4021 297.298L19.4259 298.859C19.2173 299.024 19.1696 299.363 19.3191 299.616C19.4687 299.869 19.759 299.94 19.9676 299.775L22.1068 298.086L23.4616 300.367C23.6116 300.62 23.902 300.691 24.1102 300.525C24.3185 300.36 24.3657 300.021 24.2156 299.769L22.9767 297.683L25.0814 298.196C25.2768 298.244 25.4613 298.095 25.4934 297.865C25.5255 297.634 25.3931 297.409 25.1977 297.361L23.537 296.956L24.7505 295.998C24.9591 295.833 25.0068 295.494 24.8573 295.241C24.7077 294.988 24.4174 294.917 24.2088 295.081L22.3187 296.574L20.7751 293.975C20.625 293.722 20.3346 293.651 20.1264 293.817C19.9182 293.982 19.871 294.321 20.021 294.573L21.0801 296.357L19.4648 295.963C19.2694 295.915 19.0849 296.063 19.0528 296.294Z" fill="#8DE3CE"/>
<path fill-rule="evenodd" clip-rule="evenodd" d="M46.7817 527.458C46.7496 527.689 46.882 527.914 47.0774 527.962L49.1325 528.463L47.1549 530.025C46.9463 530.19 46.8985 530.528 47.0481 530.781C47.1977 531.034 47.488 531.106 47.6966 530.941L49.8358 529.251L51.1899 531.532C51.3399 531.784 51.6303 531.855 51.8386 531.69C52.0468 531.525 52.094 531.186 51.944 530.933L50.7049 528.846L52.8103 529.36C53.0057 529.408 53.1902 529.259 53.2223 529.029C53.2544 528.798 53.122 528.573 52.9266 528.525L51.2674 528.121L52.4795 527.163C52.688 526.998 52.7358 526.66 52.5862 526.407C52.4367 526.154 52.1463 526.082 51.9378 526.247L50.0478 527.74L48.5034 525.139C48.3534 524.887 48.063 524.816 47.8548 524.981C47.6465 525.146 47.5993 525.485 47.7493 525.738L48.8082 527.521L47.1937 527.127C46.9983 527.079 46.8138 527.228 46.7817 527.458Z" fill="#8DE3CE"/>
<path fill-rule="evenodd" clip-rule="evenodd" d="M247.968 570.486C247.936 570.716 248.069 570.942 248.264 570.99L250.32 571.491L248.341 573.054C248.133 573.219 248.085 573.557 248.235 573.81C248.384 574.063 248.675 574.135 248.883 573.97L251.022 572.28L252.377 574.56C252.527 574.813 252.817 574.884 253.025 574.719C253.233 574.553 253.281 574.215 253.131 573.962L251.891 571.874L253.997 572.388C254.192 572.436 254.377 572.287 254.409 572.057C254.441 571.826 254.309 571.601 254.113 571.553L252.455 571.149L253.666 570.192C253.875 570.027 253.922 569.689 253.773 569.436C253.623 569.183 253.333 569.111 253.124 569.276L251.234 570.769L249.69 568.168C249.54 567.915 249.25 567.845 249.041 568.01C248.833 568.175 248.786 568.514 248.936 568.767L249.994 570.549L248.38 570.155C248.185 570.107 248 570.255 247.968 570.486Z" fill="#8DE3CE"/>
<path fill-rule="evenodd" clip-rule="evenodd" d="M150.349 564.801C150.317 565.032 150.449 565.257 150.645 565.305L152.698 565.806L150.722 567.367C150.513 567.532 150.465 567.87 150.615 568.123C150.764 568.376 151.055 568.448 151.263 568.283L153.403 566.593L154.757 568.874C154.907 569.126 155.198 569.197 155.406 569.032C155.614 568.866 155.661 568.528 155.511 568.275L154.273 566.19L156.378 566.703C156.573 566.751 156.758 566.603 156.79 566.372C156.822 566.142 156.689 565.916 156.494 565.869L154.833 565.464L156.046 564.505C156.255 564.34 156.302 564.002 156.153 563.749C156.003 563.496 155.713 563.424 155.504 563.589L153.615 565.082L152.071 562.481C151.921 562.229 151.63 562.158 151.422 562.323C151.214 562.488 151.167 562.827 151.317 563.08L152.377 564.864L150.761 564.47C150.566 564.423 150.381 564.571 150.349 564.801Z" fill="#8DE3CE"/>
<path fill-rule="evenodd" clip-rule="evenodd" d="M58.0366 266.103C58.0045 266.333 58.1369 266.559 58.3323 266.606L60.3853 267.107L58.4089 268.668C58.2004 268.833 58.1526 269.172 58.3022 269.425C58.4517 269.678 58.7421 269.749 58.9506 269.584L61.0903 267.894L62.4446 270.175C62.5946 270.427 62.885 270.498 63.0933 270.333C63.3015 270.168 63.3487 269.829 63.1987 269.576L61.9605 267.491L64.0652 268.005C64.2606 268.052 64.4451 267.904 64.4772 267.674C64.5093 267.443 64.3769 267.218 64.1815 267.17L62.5202 266.765L63.7336 265.806C63.9421 265.642 63.9899 265.303 63.8403 265.05C63.6907 264.797 63.4004 264.726 63.1919 264.89L61.3023 266.383L59.7581 263.783C59.6081 263.53 59.3177 263.459 59.1094 263.624C58.9012 263.79 58.854 264.128 59.004 264.381L60.0639 266.166L58.4486 265.772C58.2532 265.724 58.0687 265.872 58.0366 266.103Z" fill="#8DE3CE"/>
<path fill-rule="evenodd" clip-rule="evenodd" d="M125.257 649.305C125.225 649.535 125.357 649.761 125.553 649.809L127.608 650.31L125.631 651.872C125.422 652.037 125.375 652.375 125.524 652.628C125.674 652.881 125.964 652.953 126.173 652.788L128.312 651.098L129.667 653.379C129.817 653.631 130.107 653.702 130.315 653.537C130.524 653.371 130.571 653.033 130.421 652.78L129.182 650.694L131.286 651.207C131.481 651.255 131.666 651.106 131.698 650.876C131.73 650.645 131.597 650.42 131.402 650.372L129.743 649.968L130.956 649.01C131.164 648.845 131.212 648.507 131.062 648.254C130.913 648.001 130.622 647.929 130.414 648.094L128.524 649.587L126.98 646.986C126.83 646.734 126.54 646.663 126.331 646.828C126.123 646.993 126.076 647.332 126.226 647.585L127.285 649.368L125.669 648.974C125.474 648.926 125.289 649.074 125.257 649.305Z" fill="#8DE3CE"/>
<path fill-rule="evenodd" clip-rule="evenodd" d="M32.944 350.605C32.9119 350.836 33.0443 351.061 33.2397 351.109L35.2946 351.61L33.3171 353.172C33.1086 353.337 33.0608 353.675 33.2104 353.928C33.36 354.181 33.6503 354.253 33.8588 354.088L35.9985 352.398L37.3528 354.678C37.5028 354.931 37.7932 355.002 38.0015 354.837C38.2097 354.671 38.2569 354.333 38.1069 354.08L36.868 351.994L38.9726 352.507C39.168 352.555 39.3525 352.406 39.3846 352.176C39.4167 351.945 39.2843 351.72 39.0889 351.672L37.4294 351.268L38.6418 350.31C38.8503 350.145 38.8981 349.807 38.7485 349.554C38.5989 349.301 38.3086 349.229 38.1001 349.394L36.2105 350.886L34.6663 348.286C34.5163 348.033 34.2259 347.963 34.0176 348.128C33.8094 348.293 33.7622 348.632 33.9122 348.884L34.9714 350.668L33.356 350.274C33.1606 350.226 32.9762 350.375 32.944 350.605Z" fill="#8DE3CE"/>
<path fill-rule="evenodd" clip-rule="evenodd" d="M11.9574 623.394C11.9253 623.624 12.0577 623.85 12.2531 623.897L14.3069 624.398L12.3305 625.959C12.122 626.124 12.0742 626.463 12.2238 626.716C12.3734 626.969 12.6637 627.04 12.8722 626.875L15.0119 625.185L16.3662 627.466C16.5162 627.719 16.8066 627.789 17.0149 627.624C17.2231 627.459 17.2703 627.12 17.1203 626.868L15.8821 624.783L17.986 625.296C18.1814 625.343 18.3658 625.195 18.3979 624.965C18.4301 624.734 18.2977 624.509 18.1023 624.461L16.4418 624.056L17.6552 623.098C17.8637 622.933 17.9115 622.594 17.7619 622.341C17.6123 622.088 17.322 622.017 17.1135 622.181L15.2239 623.674L13.6797 621.074C13.5297 620.821 13.2393 620.75 13.031 620.915C12.8228 621.081 12.7756 621.419 12.9256 621.672L13.9855 623.457L12.3694 623.063C12.174 623.015 11.9895 623.163 11.9574 623.394Z" fill="#8DE3CE"/>
<path fill-rule="evenodd" clip-rule="evenodd" d="M213.142 666.423C213.11 666.654 213.243 666.879 213.438 666.927L215.493 667.428L213.515 668.99C213.307 669.155 213.259 669.494 213.409 669.747C213.558 669.999 213.849 670.071 214.057 669.906L216.197 668.216L217.551 670.497C217.701 670.749 217.992 670.82 218.2 670.655C218.408 670.49 218.455 670.151 218.305 669.898L217.066 667.812L219.171 668.325C219.366 668.373 219.551 668.225 219.583 667.994C219.615 667.764 219.483 667.538 219.287 667.491L217.628 667.086L218.84 666.128C219.049 665.964 219.096 665.625 218.947 665.372C218.797 665.119 218.507 665.048 218.298 665.212L216.409 666.705L214.865 664.104C214.715 663.852 214.424 663.781 214.216 663.946C214.008 664.111 213.961 664.45 214.111 664.703L215.17 666.486L213.554 666.092C213.359 666.045 213.174 666.193 213.142 666.423Z" fill="#8DE3CE"/>
<path fill-rule="evenodd" clip-rule="evenodd" d="M120.832 367.724C120.8 367.954 120.932 368.18 121.128 368.227L123.181 368.728L121.205 370.289C120.997 370.454 120.949 370.793 121.098 371.046C121.248 371.298 121.538 371.37 121.747 371.205L123.887 369.515L125.241 371.796C125.391 372.048 125.681 372.119 125.889 371.954C126.098 371.789 126.145 371.45 125.995 371.197L124.757 369.113L126.861 369.626C127.056 369.673 127.24 369.525 127.273 369.295C127.305 369.064 127.172 368.839 126.977 368.791L125.316 368.386L126.53 367.427C126.738 367.263 126.786 366.924 126.636 366.671C126.487 366.418 126.197 366.347 125.988 366.511L124.098 368.004L122.554 365.403C122.404 365.151 122.114 365.08 121.906 365.245C121.697 365.41 121.65 365.749 121.8 366.002L122.86 367.787L121.244 367.393C121.049 367.345 120.864 367.493 120.832 367.724Z" fill="#8DE3CE"/>
<path fill-rule="evenodd" clip-rule="evenodd" d="M194.243 541.848C194.211 542.078 194.344 542.304 194.539 542.352L196.592 542.852L194.616 544.414C194.407 544.578 194.359 544.917 194.509 545.17C194.658 545.423 194.949 545.494 195.157 545.33L197.297 543.64L198.651 545.92C198.801 546.173 199.092 546.244 199.3 546.078C199.508 545.913 199.555 545.574 199.405 545.322L198.167 543.236L200.272 543.75C200.467 543.797 200.652 543.649 200.684 543.419C200.716 543.188 200.584 542.963 200.388 542.915L198.727 542.51L199.94 541.552C200.149 541.387 200.197 541.049 200.047 540.796C199.897 540.543 199.607 540.471 199.399 540.636L197.509 542.128L195.965 539.528C195.815 539.275 195.524 539.204 195.316 539.37C195.108 539.535 195.061 539.874 195.211 540.126L196.27 541.911L194.655 541.517C194.46 541.469 194.275 541.617 194.243 541.848Z" fill="#8DE3CE"/>
<path fill-rule="evenodd" clip-rule="evenodd" d="M101.932 243.149C101.9 243.38 102.032 243.605 102.227 243.653L104.281 244.154L102.304 245.715C102.096 245.88 102.048 246.218 102.197 246.471C102.347 246.724 102.637 246.796 102.846 246.631L104.986 244.941L106.34 247.222C106.49 247.474 106.78 247.545 106.989 247.38C107.197 247.215 107.244 246.876 107.094 246.623L105.856 244.538L107.96 245.051C108.156 245.099 108.34 244.951 108.372 244.72C108.404 244.49 108.272 244.264 108.077 244.217L106.416 243.811L107.629 242.853C107.837 242.689 107.885 242.35 107.736 242.097C107.586 241.844 107.296 241.772 107.087 241.937L105.198 243.43L103.653 240.829C103.503 240.577 103.213 240.506 103.005 240.671C102.796 240.836 102.749 241.175 102.899 241.428L103.959 243.212L102.344 242.818C102.148 242.771 101.964 242.919 101.932 243.149Z" fill="#8DE3CE"/>
<path fill-rule="evenodd" clip-rule="evenodd" d="M193.427 754.828C193.395 755.058 193.528 755.284 193.723 755.331L195.776 755.832L193.8 757.393C193.592 757.558 193.544 757.896 193.694 758.149C193.843 758.402 194.133 758.474 194.342 758.309L196.482 756.619L197.836 758.9C197.986 759.152 198.276 759.223 198.485 759.058C198.693 758.892 198.74 758.554 198.59 758.301L197.352 756.216L199.456 756.73C199.651 756.777 199.836 756.629 199.868 756.398C199.9 756.168 199.768 755.943 199.572 755.895L197.911 755.49L199.125 754.531C199.333 754.366 199.381 754.028 199.232 753.775C199.082 753.522 198.792 753.45 198.583 753.615L196.694 755.108L195.149 752.507C194.999 752.255 194.709 752.184 194.501 752.349C194.293 752.514 194.245 752.853 194.395 753.106L195.455 754.891L193.839 754.497C193.644 754.449 193.459 754.597 193.427 754.828Z" fill="#8DE3CE"/>
<path fill-rule="evenodd" clip-rule="evenodd" d="M101.116 456.128C101.084 456.358 101.216 456.584 101.412 456.631L103.466 457.132L101.489 458.694C101.28 458.859 101.233 459.198 101.382 459.451C101.532 459.704 101.822 459.775 102.031 459.61L104.17 457.92L105.525 460.201C105.675 460.453 105.965 460.524 106.173 460.359C106.382 460.194 106.429 459.855 106.279 459.602L105.04 457.516L107.144 458.03C107.34 458.077 107.524 457.929 107.556 457.699C107.589 457.468 107.456 457.243 107.261 457.195L105.601 456.79L106.814 455.832C107.022 455.668 107.07 455.329 106.92 455.076C106.771 454.823 106.48 454.752 106.272 454.916L104.382 456.409L102.838 453.809C102.688 453.556 102.398 453.485 102.189 453.65C101.981 453.816 101.934 454.154 102.084 454.407L103.143 456.191L101.528 455.797C101.332 455.749 101.148 455.897 101.116 456.128Z" fill="#8DE3CE"/>
<path fill-rule="evenodd" clip-rule="evenodd" d="M157.477 731.386C157.445 731.616 157.577 731.842 157.773 731.889L159.827 732.39L157.85 733.952C157.641 734.117 157.594 734.456 157.743 734.709C157.893 734.962 158.183 735.033 158.392 734.868L160.532 733.178L161.886 735.459C162.036 735.712 162.327 735.782 162.535 735.617C162.743 735.452 162.79 735.113 162.64 734.861L161.402 732.774L163.505 733.288C163.701 733.335 163.885 733.187 163.917 732.957C163.949 732.726 163.817 732.501 163.622 732.453L161.962 732.048L163.175 731.091C163.383 730.926 163.431 730.587 163.281 730.334C163.132 730.081 162.841 730.01 162.633 730.174L160.744 731.667L159.2 729.067C159.05 728.814 158.759 728.743 158.551 728.908C158.343 729.074 158.296 729.412 158.446 729.665L159.505 731.449L157.889 731.055C157.693 731.007 157.509 731.155 157.477 731.386Z" fill="#8DE3CE"/>
<path fill-rule="evenodd" clip-rule="evenodd" d="M65.1641 432.687C65.132 432.917 65.2644 433.143 65.4598 433.191L67.5133 433.691L65.5371 435.252C65.3286 435.417 65.2808 435.756 65.4303 436.009C65.5799 436.262 65.8702 436.333 66.0788 436.168L68.218 434.479L69.5728 436.76C69.7228 437.013 70.0132 437.084 70.2214 436.918C70.4297 436.753 70.4769 436.414 70.3269 436.162L69.088 434.075L71.1927 434.589C71.3881 434.637 71.5725 434.488 71.6046 434.258C71.6368 434.027 71.5044 433.802 71.309 433.754L69.6482 433.349L70.8617 432.39C71.0703 432.226 71.1181 431.887 70.9685 431.634C70.8189 431.381 70.5286 431.31 70.32 431.474L68.4299 432.967L66.8863 430.368C66.7363 430.115 66.4458 430.044 66.2376 430.21C66.0294 430.375 65.9822 430.714 66.1322 430.966L67.1913 432.75L65.5761 432.356C65.3807 432.308 65.1962 432.456 65.1641 432.687Z" fill="#8DE3CE"/>
<path fill-rule="evenodd" clip-rule="evenodd" d="M42.7382 598.969C42.706 599.199 42.8384 599.425 43.0338 599.473L45.0877 599.974L43.1113 601.535C42.9027 601.699 42.8549 602.038 43.0045 602.291C43.1541 602.544 43.4444 602.616 43.6529 602.451L45.7927 600.761L47.1469 603.041C47.297 603.294 47.5874 603.365 47.7956 603.199C48.0038 603.034 48.051 602.695 47.901 602.443L46.6629 600.358L48.7667 600.871C48.9621 600.919 49.1466 600.77 49.1787 600.54C49.2108 600.309 49.0784 600.084 48.883 600.036L47.2226 599.631L48.4359 598.673C48.6444 598.508 48.6922 598.17 48.5426 597.917C48.3931 597.664 48.1027 597.592 47.8942 597.757L46.0046 599.249L44.4604 596.649C44.3104 596.396 44.02 596.325 43.8118 596.491C43.6035 596.656 43.5563 596.995 43.7064 597.247L44.7662 599.032L43.1501 598.638C42.9547 598.59 42.7703 598.739 42.7382 598.969Z" fill="#8DE3CE"/>
<path fill-rule="evenodd" clip-rule="evenodd" d="M243.925 641.998C243.893 642.228 244.025 642.454 244.22 642.501L246.274 643.002L244.298 644.563C244.089 644.728 244.041 645.067 244.191 645.32C244.34 645.573 244.631 645.644 244.839 645.479L246.979 643.79L248.333 646.071C248.483 646.324 248.774 646.395 248.982 646.229C249.19 646.064 249.237 645.725 249.087 645.473L247.848 643.386L249.953 643.9C250.149 643.947 250.333 643.799 250.365 643.569C250.397 643.338 250.265 643.113 250.07 643.065L248.409 642.66L249.622 641.702C249.831 641.537 249.879 641.198 249.729 640.945C249.579 640.692 249.289 640.621 249.081 640.785L247.19 642.278L245.647 639.679C245.497 639.426 245.206 639.355 244.998 639.521C244.79 639.686 244.743 640.025 244.893 640.277L245.952 642.06L244.337 641.667C244.141 641.619 243.957 641.767 243.925 641.998Z" fill="#8DE3CE"/>
<path fill-rule="evenodd" clip-rule="evenodd" d="M151.612 343.299C151.58 343.53 151.712 343.755 151.908 343.803L153.963 344.304L151.986 345.866C151.777 346.031 151.729 346.369 151.879 346.622C152.029 346.875 152.319 346.947 152.527 346.782L154.667 345.092L156.021 347.373C156.171 347.625 156.462 347.696 156.67 347.531C156.878 347.366 156.926 347.027 156.776 346.774L155.537 344.688L157.641 345.201C157.836 345.249 158.021 345.1 158.053 344.87C158.085 344.639 157.952 344.414 157.757 344.366L156.098 343.962L157.31 343.004C157.519 342.839 157.567 342.501 157.417 342.248C157.268 341.995 156.977 341.923 156.769 342.088L154.879 343.581L153.335 340.98C153.185 340.728 152.895 340.657 152.686 340.822C152.478 340.987 152.431 341.326 152.581 341.579L153.64 343.362L152.024 342.968C151.829 342.92 151.644 343.069 151.612 343.299Z" fill="#8DE3CE"/>
<path d="M112.269 553.988C113.955 554.4 115.084 556.321 114.814 558.259C114.544 560.198 112.972 561.46 111.285 561.049C109.598 560.638 108.47 558.717 108.74 556.778C109.01 554.839 110.582 553.577 112.269 553.988Z" stroke="#A7A7A7" stroke-width="2"/>
<path d="M19.9568 255.29C21.6435 255.701 22.7718 257.622 22.5017 259.561C22.2316 261.499 20.6598 262.762 18.9731 262.35C17.2865 261.939 16.1582 260.018 16.4282 258.079C16.6983 256.141 18.2702 254.878 19.9568 255.29Z" stroke="#A7A7A7" stroke-width="2"/>
<path d="M190.145 674.826C191.831 675.237 192.96 677.158 192.69 679.097C192.42 681.036 190.848 682.298 189.161 681.887C187.474 681.475 186.346 679.554 186.616 677.616C186.886 675.677 188.458 674.415 190.145 674.826Z" stroke="#A7A7A7" stroke-width="2"/>
<path d="M97.8328 376.126C99.5194 376.537 100.648 378.458 100.378 380.397C100.108 382.335 98.5357 383.598 96.849 383.187C95.1624 382.775 94.0341 380.854 94.3042 378.916C94.5743 376.977 96.1461 375.715 97.8328 376.126Z" stroke="#A7A7A7" stroke-width="2"/>
<path d="M190.701 490.264C192.388 490.675 193.516 492.596 193.246 494.535C192.976 496.473 191.404 497.736 189.717 497.324C188.031 496.913 186.902 494.992 187.172 493.053C187.443 491.115 189.014 489.852 190.701 490.264Z" stroke="#A7A7A7" stroke-width="2"/>
<path d="M66.0398 556.522C67.7264 556.933 68.8548 558.854 68.5847 560.793C68.3146 562.731 66.7427 563.994 65.0561 563.583C63.3694 563.171 62.2411 561.25 62.5112 559.312C62.7813 557.373 64.3531 556.111 66.0398 556.522Z" stroke="#A7A7A7" stroke-width="2"/>
<path d="M267.226 599.551C268.913 599.962 270.041 601.883 269.771 603.822C269.501 605.761 267.929 607.023 266.243 606.612C264.556 606.2 263.428 604.279 263.698 602.341C263.968 600.402 265.54 599.14 267.226 599.551Z" stroke="#A7A7A7" stroke-width="2"/>
<path d="M174.914 300.852C176.601 301.264 177.729 303.185 177.459 305.123C177.189 307.062 175.617 308.324 173.931 307.913C172.244 307.501 171.116 305.58 171.386 303.642C171.656 301.703 173.228 300.441 174.914 300.852Z" stroke="#A7A7A7" stroke-width="2"/>
<path d="M133.62 698.151C135.306 698.562 136.435 700.483 136.165 702.422C135.894 704.361 134.323 705.623 132.636 705.212C130.949 704.8 129.821 702.879 130.091 700.941C130.361 699.002 131.933 697.74 133.62 698.151Z" stroke="#A7A7A7" stroke-width="2"/>
<path d="M41.3076 399.452C42.9942 399.864 44.1225 401.785 43.8524 403.723C43.5823 405.662 42.0105 406.924 40.3238 406.513C38.6372 406.101 37.5089 404.18 37.779 402.242C38.0491 400.303 39.6209 399.041 41.3076 399.452Z" stroke="#A7A7A7" stroke-width="2"/>
<path d="M156.252 625.995C157.938 626.407 159.067 628.328 158.796 630.266C158.526 632.205 156.955 633.467 155.268 633.056C153.581 632.645 152.453 630.724 152.723 628.785C152.993 626.846 154.565 625.584 156.252 625.995Z" stroke="#A7A7A7" stroke-width="2"/>
<path d="M63.9402 327.295C65.6269 327.707 66.7552 329.628 66.4851 331.566C66.215 333.505 64.6432 334.767 62.9565 334.356C61.2699 333.944 60.1416 332.023 60.4116 330.085C60.6817 328.146 62.2536 326.884 63.9402 327.295Z" stroke="#A7A7A7" stroke-width="2"/>
<path d="M15.3817 691.752C17.0684 692.164 18.1967 694.085 17.9266 696.023C17.6565 697.962 16.0846 699.224 14.398 698.813C12.7113 698.401 11.583 696.48 11.8531 694.542C12.1232 692.603 13.6951 691.341 15.3817 691.752Z" stroke="#A7A7A7" stroke-width="2"/>
<path d="M216.568 734.781C218.255 735.193 219.383 737.114 219.113 739.052C218.843 740.991 217.271 742.253 215.585 741.842C213.898 741.43 212.77 739.509 213.04 737.571C213.31 735.632 214.882 734.37 216.568 734.781Z" stroke="#A7A7A7" stroke-width="2"/>
<path d="M124.256 436.082C125.943 436.494 127.071 438.415 126.801 440.353C126.531 442.292 124.959 443.554 123.273 443.143C121.586 442.732 120.458 440.811 120.728 438.872C120.998 436.933 122.57 435.671 124.256 436.082Z" stroke="#A7A7A7" stroke-width="2"/>
<path d="M160.082 492.289C161.768 492.701 162.897 494.622 162.626 496.56C162.356 498.499 160.784 499.761 159.098 499.35C157.411 498.939 156.283 497.018 156.553 495.079C156.823 493.141 158.395 491.878 160.082 492.289Z" stroke="#A7A7A7" stroke-width="2"/>
<path d="M67.7695 193.59C69.4562 194.001 70.5845 195.922 70.3144 197.861C70.0443 199.799 68.4724 201.062 66.7858 200.65C65.0992 200.239 63.9708 198.318 64.2409 196.379C64.511 194.441 66.0829 193.178 67.7695 193.59Z" stroke="#A7A7A7" stroke-width="2"/>
</svg>
